<svg width="311" height="437" viewBox="0 0 311 437" fill="none" xmlns="http://www.w3.org/2000/svg">
<g clip-path="url(#clip0_520_8053)">
<path opacity="0.35" fill-rule="evenodd" clip-rule="evenodd" d="M124.005 311.283C159.237 333.127 198.415 349.471 240.778 359.379C240.796 359.365 240.814 359.351 240.832 359.337C240.836 359.339 240.839 359.34 240.839 359.34C186.967 400.755 153.439 431.058 119.045 467.634C83.2744 505.676 45.2332 550.466 -0.539013 622.622C-2.24946 620.131 -4.89918 616.085 -8.19746 611.048C-18.3871 595.487 -34.7669 570.474 -48.7654 552.675C-24.7145 449.845 37.4975 365.707 124.005 311.283Z" fill="white"/>
<path opacity="0.55" fill-rule="evenodd" clip-rule="evenodd" d="M-0.722809 186.607C21.1811 151.378 37.465 112.331 47.3735 69.9669C47.3594 69.9489 47.3453 69.931 47.3312 69.913C47.3325 69.9087 47.3332 69.9065 47.3332 69.9065C88.7491 123.778 119.051 157.306 155.628 191.7C193.669 227.471 238.46 265.512 310.615 311.284C308.125 312.995 304.078 315.644 299.042 318.943C283.481 329.132 258.468 345.512 240.669 359.511C137.839 335.46 53.7009 273.115 -0.722809 186.607Z" fill="white"/>
<path opacity="0.75" fill-rule="evenodd" clip-rule="evenodd" d="M-125.394 311.338C-160.625 289.494 -199.803 273.151 -242.166 263.242C-242.184 263.256 -242.202 263.27 -242.22 263.284C-242.224 263.283 -242.227 263.282 -242.227 263.282C-188.355 221.866 -154.827 191.564 -120.433 154.987C-84.6624 116.946 -46.6212 72.1553 -0.848987 -0.000277537C0.861462 2.49035 3.51118 6.53671 6.80946 11.5735C16.9991 27.1338 33.3789 52.147 47.3774 69.9465C23.3265 172.777 -38.8855 256.914 -125.394 311.338Z" fill="white"/>
</g>
<defs>
<clipPath id="clip0_520_8053">
<rect width="623" height="623" fill="white" transform="translate(-312)"/>
</clipPath>
</defs>
</svg>
