<svg width="64" height="58" viewBox="0 0 64 58" fill="none" xmlns="http://www.w3.org/2000/svg">
<path d="M54.5056 31.0264L54.5056 9.98462L45.0271 9.98462M54.5056 31.0264L62.2838 23.2482M54.5056 31.0264L46.7274 23.2482" stroke="#3D3D3D" stroke-width="3" stroke-linejoin="bevel"/>
<path d="M24.2808 9.52075L9.23901 9.52075L9.23901 21.9993M24.2808 9.52075L16.5026 1.74258M24.2808 9.52075L16.5026 17.2989" stroke="#6E6E6E" stroke-width="3" stroke-linejoin="bevel"/>
<path d="M9.02068 42.961L9.02068 56.0028L54.4992 56.0028L54.4992 51.7392M9.02068 42.961L1.2425 50.7392M9.02068 42.961L16.7989 50.7392" stroke="#989898" stroke-width="3" stroke-linejoin="bevel"/>
<path d="M49 47L59 47L59 37L49 37L49 47Z" fill="white" stroke="#989898" stroke-width="3" stroke-linejoin="bevel"/>
<path d="M4 37L14 37L14 27L4 27L4 37Z" fill="white" stroke="#6E6E6E" stroke-width="3" stroke-linejoin="bevel"/>
<path d="M30 15L40 15L40 5L30 5L30 15Z" fill="white" stroke="#3D3D3D" stroke-width="3" stroke-linejoin="bevel"/>
</svg>
