<svg width="46" height="46" viewBox="0 0 46 46" fill="none" xmlns="http://www.w3.org/2000/svg">
<path d="M32.5837 24.8163V21.0834C32.5837 20.0249 31.7255 19.1667 30.667 19.1667H15.3337C14.2751 19.1667 13.417 20.0249 13.417 21.0834V24.8204" stroke="#323232" stroke-width="2.875" stroke-linecap="round" stroke-linejoin="round"/>
<path d="M5.75 19.1667L19.55 29.5167C21.5944 31.0501 24.4056 31.0501 26.45 29.5167L40.25 19.1667" stroke="#323232" stroke-width="2.875" stroke-linecap="round" stroke-linejoin="round"/>
<path fill-rule="evenodd" clip-rule="evenodd" d="M38.7473 16.3166L26.496 6.93479C24.4331 5.35507 21.5671 5.35507 19.5042 6.93479L7.25267 16.3166C6.30545 17.042 5.74998 18.167 5.75 19.3601V34.5C5.75 37.6756 8.32436 40.25 11.5 40.25H34.5C37.6756 40.25 40.25 37.6756 40.25 34.5V19.36C40.25 18.167 39.6945 17.0419 38.7473 16.3166Z" stroke="#323232" stroke-width="2.875" stroke-linecap="round" stroke-linejoin="round"/>
</svg>
