<svg width="165" height="62" viewBox="0 0 165 62" fill="none" xmlns="http://www.w3.org/2000/svg">
<g opacity="0.8">
<g clip-path="url(#clip0_520_8058)">
<path opacity="0.38" fill-rule="evenodd" clip-rule="evenodd" d="M43.234 30.8667C46.7276 33.0327 50.6124 34.6534 54.8131 35.6359C54.8149 35.6345 54.8167 35.6331 54.8184 35.6317C54.8189 35.6319 54.8191 35.6319 54.8191 35.6319C49.4773 39.7387 46.1526 42.7435 42.7422 46.3704C39.1952 50.1425 35.423 54.5839 30.8843 61.7388C30.7147 61.4918 30.4519 61.0906 30.1249 60.5912C29.1145 59.0482 27.4903 56.5679 26.1022 54.8029C28.487 44.6064 34.6559 36.2633 43.234 30.8667Z" fill="black"/>
<path opacity="0.55" fill-rule="evenodd" clip-rule="evenodd" d="M30.866 18.5038C33.038 15.0106 34.6527 11.1387 35.6352 6.93787C35.6338 6.93609 35.6324 6.93431 35.631 6.93253C35.6312 6.9321 35.6312 6.93188 35.6312 6.93188C39.738 12.2737 42.7428 15.5984 46.3697 19.0088C50.1418 22.5559 54.5832 26.328 61.7381 30.8667C61.4912 31.0363 61.0899 31.2991 60.5905 31.6261C59.0475 32.6365 56.5672 34.2607 54.8023 35.6488C44.6057 33.264 36.2627 27.0819 30.866 18.5038Z" fill="black"/>
<path opacity="0.75" fill-rule="evenodd" clip-rule="evenodd" d="M18.5038 30.8721C15.0102 28.706 11.1254 27.0854 6.92464 26.1029C6.92288 26.1043 6.92112 26.1057 6.91935 26.1071C6.9189 26.1069 6.91867 26.1068 6.91867 26.1068C12.2605 22.0001 15.5851 18.9953 18.9956 15.3684C22.5426 11.5963 26.3148 7.15486 30.8535 -4.41544e-05C31.0231 0.246927 31.2859 0.648157 31.6129 1.1476C32.6233 2.69056 34.2475 5.17084 35.6356 6.93583C33.2507 17.1324 27.0818 25.4755 18.5038 30.8721Z" fill="black"/>
<path opacity="0.55" fill-rule="evenodd" clip-rule="evenodd" d="M30.8844 43.2237C28.7183 46.7173 27.0857 50.6021 26.1031 54.8028C26.1045 54.8046 26.1059 54.8064 26.1073 54.8082C26.1072 54.8086 26.1071 54.8088 26.1071 54.8088C22.0004 49.467 18.9956 46.1424 15.3687 42.7319C11.5966 39.1849 7.15516 35.4127 0.000261307 30.874C0.247234 30.7044 0.648468 30.4416 1.14791 30.1146C2.69087 29.1042 5.17115 27.48 6.93613 26.0919C17.1327 28.4768 25.4878 34.6456 30.8844 43.2237Z" fill="black"/>
</g>
<g clip-path="url(#clip1_520_8058)">
<g clip-path="url(#clip2_520_8058)">
<path d="M85.8999 15.8742L79.7851 30.9293H74.7227L82.9705 11.1572H88.8293L97.1056 30.9293H91.9578L85.8999 15.8742ZM90.8771 27.681H80.8659L81.9182 23.9525H89.7679L90.8771 27.681Z" fill="black"/>
<path d="M99.6564 30.9293V11.1572H110.009C111.469 11.1572 112.72 11.3549 113.763 11.7503C114.825 12.1458 115.631 12.7201 116.181 13.4733C116.749 14.2077 117.034 15.1022 117.034 16.1567C117.034 16.9287 116.873 17.6443 116.55 18.3034C116.247 18.9624 115.801 19.5179 115.214 19.9699C114.626 20.4218 113.943 20.7419 113.166 20.9302L113.024 20.4783C114.503 20.7043 115.678 21.2786 116.55 22.2013C117.422 23.1052 117.859 24.2256 117.859 25.5625C117.859 26.6735 117.555 27.6339 116.948 28.4436C116.342 29.2345 115.46 29.8465 114.303 30.2796C113.166 30.7127 111.82 30.9293 110.265 30.9293H99.6564ZM104.15 22.7097V19.2072H109.07C109.791 19.2072 110.379 19.1319 110.834 18.9813C111.308 18.8118 111.658 18.5764 111.886 18.2751C112.114 17.955 112.227 17.5595 112.227 17.0888C112.227 16.3544 111.971 15.8271 111.459 15.507C110.947 15.1681 110.151 14.9986 109.07 14.9986H104.463V27.0878H109.611C110.388 27.0878 111.023 27.0125 111.516 26.8619C112.009 26.6924 112.379 26.4476 112.625 26.1275C112.872 25.8073 112.995 25.4025 112.995 24.9129C112.995 24.1597 112.711 23.6042 112.142 23.2464C111.573 22.8886 110.701 22.7097 109.525 22.7097H104.15Z" fill="black"/>
<path d="M121.268 30.9293V11.1572H130.113C132.332 11.1572 134.275 11.562 135.944 12.3717C137.631 13.1814 138.92 14.3301 139.812 15.8177C140.722 17.3053 141.177 19.0378 141.177 21.015C141.177 23.011 140.722 24.7622 139.812 26.2687C138.92 27.7563 137.631 28.905 135.944 29.7147C134.275 30.5244 132.332 30.9293 130.113 30.9293H121.268ZM129.886 26.7771C131.175 26.7771 132.284 26.5512 133.213 26.0992C134.142 25.6285 134.853 24.9694 135.346 24.122C135.858 23.2558 136.114 22.2295 136.114 21.0432C136.114 19.838 135.858 18.8118 135.346 17.9644C134.853 17.0982 134.133 16.4391 133.185 15.9872C132.256 15.5353 131.156 15.3093 129.886 15.3093H126.16V26.7771H129.886Z" fill="black"/>
<path d="M157.318 30.9199L149.089 21.3822V20.4783L157.081 11.1289H163.053L154.606 20.8737L163.277 30.9199H157.318ZM144.709 30.9293L144.681 11.1572H149.601V30.9293H144.709Z" fill="black"/>
</g>
<path d="M80.967 51.0108C79.8771 51.0108 78.8697 50.7633 77.9449 50.2681C77.0311 49.7729 76.299 49.0742 75.7485 48.1719C75.2091 47.2697 74.9393 46.2298 74.9393 45.0525C74.9393 43.8641 75.1981 42.8243 75.7155 41.933C76.244 41.0307 76.9541 40.3375 77.8458 39.8533C78.7486 39.3582 79.7504 39.1106 80.8514 39.1106C81.633 39.1106 82.3707 39.2261 83.0643 39.4572C83.7689 39.6883 84.49 40.0514 85.2276 40.5465L84.5175 41.8339C83.901 41.4048 83.3065 41.0912 82.734 40.8931C82.1725 40.6951 81.578 40.5961 80.9505 40.5961C80.1468 40.5961 79.4147 40.7721 78.7541 41.1242C78.1045 41.4763 77.5871 41.988 77.2018 42.6592C76.8275 43.3304 76.6403 44.1227 76.6403 45.036C76.6403 45.9272 76.8275 46.714 77.2018 47.3962C77.5871 48.0674 78.11 48.5901 78.7706 48.9642C79.4312 49.3273 80.1688 49.5089 80.9835 49.5089C81.611 49.5089 82.2165 49.4098 82.8 49.2118C83.3835 49.0027 83.9725 48.6891 84.567 48.271L85.2771 49.5584C84.5836 50.0535 83.8845 50.4221 83.1799 50.6642C82.4753 50.8953 81.7376 51.0108 80.967 51.0108Z" fill="black"/>
<path d="M91.3498 50.9943C90.436 50.9943 89.6103 50.7963 88.8727 50.4001C88.1461 49.993 87.5791 49.4373 87.1718 48.7331C86.7644 48.0289 86.5607 47.2311 86.5607 46.3399C86.5607 45.4596 86.7644 44.6673 87.1718 43.9631C87.5901 43.2479 88.1626 42.6922 88.8892 42.2961C89.6158 41.889 90.436 41.6854 91.3498 41.6854C92.2636 41.6854 93.0838 41.889 93.8104 42.2961C94.548 42.6922 95.1205 43.2424 95.5279 43.9466C95.9462 44.6508 96.1554 45.4431 96.1554 46.3234C96.1554 47.2146 95.9462 48.0179 95.5279 48.7331C95.1205 49.4373 94.548 49.993 93.8104 50.4001C93.0838 50.7963 92.2636 50.9943 91.3498 50.9943ZM91.3663 49.5584C91.9718 49.5584 92.5168 49.4263 93.0012 49.1623C93.4856 48.8872 93.8655 48.5075 94.1407 48.0234C94.4159 47.5282 94.5535 46.9671 94.5535 46.3399C94.5535 45.7017 94.4159 45.1405 94.1407 44.6563C93.8655 44.1722 93.4856 43.7981 93.0012 43.534C92.5168 43.2589 91.9663 43.1213 91.3498 43.1213C90.7443 43.1213 90.1938 43.2589 89.6984 43.534C89.214 43.7981 88.8342 44.1722 88.5589 44.6563C88.2837 45.1405 88.1461 45.6962 88.1461 46.3234C88.1461 46.9616 88.2837 47.5282 88.5589 48.0234C88.8342 48.5075 89.214 48.8872 89.6984 49.1623C90.1938 49.4263 90.7498 49.5584 91.3663 49.5584Z" fill="black"/>
<path d="M105.199 45.7127C105.199 44.8984 104.99 44.2712 104.572 43.8311C104.164 43.3799 103.57 43.1544 102.788 43.1544C102.227 43.1544 101.715 43.2974 101.252 43.5835C100.801 43.8696 100.438 44.2712 100.162 44.7884C99.8871 45.3055 99.7275 45.8997 99.6835 46.5709L99.3036 44.7884C99.4908 43.8751 99.9092 43.1324 100.559 42.5602C101.208 41.977 102.073 41.6854 103.151 41.6854C103.878 41.6854 104.511 41.8394 105.051 42.1475C105.59 42.4556 106.008 42.9013 106.306 43.4845C106.614 44.0566 106.768 44.7279 106.768 45.4981V50.8293H105.199V45.7127ZM98.2963 50.8293V41.867H99.8651V50.8293H98.2963Z" fill="black"/>
<path d="M112.218 50.9943C111.492 50.9943 110.809 50.9228 110.171 50.7798C109.543 50.6257 108.954 50.4111 108.404 50.1361L108.701 48.6506C109.273 48.9367 109.862 49.1567 110.468 49.3108C111.084 49.4538 111.69 49.5254 112.284 49.5254C112.692 49.5254 113.049 49.4869 113.358 49.4098C113.677 49.3328 113.925 49.2063 114.101 49.0302C114.288 48.8431 114.382 48.6066 114.382 48.3205C114.382 47.9574 114.216 47.6823 113.886 47.4952C113.556 47.2972 112.945 47.1156 112.053 46.9506C111.205 46.7965 110.534 46.6094 110.038 46.3894C109.543 46.1583 109.191 45.8777 108.982 45.5476C108.783 45.2175 108.684 44.8049 108.684 44.3097C108.695 43.7375 108.86 43.2534 109.18 42.8573C109.499 42.4611 109.923 42.1695 110.451 41.9825C110.991 41.7844 111.596 41.6854 112.268 41.6854C112.84 41.6854 113.396 41.7459 113.936 41.867C114.475 41.977 114.993 42.1365 115.488 42.3456L115.24 43.8641C114.822 43.633 114.343 43.457 113.804 43.3359C113.275 43.2149 112.725 43.1544 112.152 43.1544C111.756 43.1544 111.42 43.1874 111.145 43.2534C110.881 43.3194 110.671 43.4349 110.517 43.6C110.374 43.754 110.297 43.9521 110.286 44.1942C110.286 44.4033 110.352 44.5848 110.484 44.7389C110.616 44.8819 110.837 45.0139 111.145 45.135C111.464 45.245 111.916 45.3606 112.499 45.4816C113.391 45.6686 114.09 45.8887 114.596 46.1418C115.103 46.3839 115.461 46.681 115.67 47.0331C115.879 47.3742 115.984 47.7868 115.984 48.271C115.972 48.8762 115.802 49.3823 115.472 49.7894C115.141 50.1966 114.69 50.4992 114.117 50.6972C113.556 50.8953 112.923 50.9943 112.218 50.9943Z" fill="black"/>
<path d="M119.244 46.9836C119.244 47.7978 119.448 48.4305 119.855 48.8817C120.274 49.3218 120.874 49.5419 121.655 49.5419C122.217 49.5419 122.723 49.3988 123.175 49.1127C123.637 48.8266 124.006 48.425 124.281 47.9079C124.556 47.3907 124.716 46.7965 124.76 46.1253L125.14 47.9079C124.953 48.8211 124.534 49.5694 123.885 50.1526C123.235 50.7247 122.371 51.0108 121.292 51.0108C120.566 51.0108 119.932 50.8568 119.393 50.5487C118.854 50.2406 118.43 49.8005 118.121 49.2283C117.824 48.6451 117.676 47.9684 117.676 47.1981V41.867H119.244V46.9836ZM126.147 41.867V50.8293H124.578V41.867H126.147Z" fill="black"/>
<path d="M128.79 50.8293V38.6484H130.359V50.8293H128.79Z" fill="black"/>
<path d="M136.351 50.9943C135.492 50.9943 134.821 50.7578 134.336 50.2846C133.863 49.8005 133.626 49.1182 133.626 48.238V43.2864H132.305V42.4116L132.883 41.8174L134.534 40.0184H135.211V41.8504H138.2V43.2864H135.211V47.9409C135.211 48.447 135.338 48.8431 135.591 49.1292C135.844 49.4153 136.191 49.5584 136.632 49.5584C136.896 49.5584 137.16 49.5254 137.424 49.4593C137.7 49.3933 137.953 49.2998 138.184 49.1788L138.498 50.4497C138.189 50.6257 137.843 50.7578 137.457 50.8458C137.083 50.9448 136.714 50.9943 136.351 50.9943Z" fill="black"/>
<path d="M140.481 50.8293V41.867H142.05V50.8293H140.481ZM140.431 40.7941V38.896H142.066V40.7941H140.431Z" fill="black"/>
<path d="M151.592 45.7127C151.592 44.8984 151.383 44.2712 150.964 43.8311C150.557 43.3799 149.963 43.1544 149.181 43.1544C148.619 43.1544 148.107 43.2974 147.645 43.5835C147.194 43.8696 146.83 44.2712 146.555 44.7884C146.28 45.3055 146.12 45.8997 146.076 46.5709L145.696 44.7884C145.884 43.8751 146.302 43.1324 146.951 42.5602C147.601 41.977 148.465 41.6854 149.544 41.6854C150.271 41.6854 150.904 41.8394 151.443 42.1475C151.983 42.4556 152.401 42.9013 152.698 43.4845C153.007 44.0566 153.161 44.7279 153.161 45.4981V50.8293H151.592V45.7127ZM144.689 50.8293V41.867H146.258V50.8293H144.689Z" fill="black"/>
<path d="M159.288 53.8167C158 53.8167 156.993 53.6132 156.266 53.206C155.55 52.7989 155.193 52.2267 155.193 51.4895C155.193 51.1704 155.292 50.8733 155.49 50.5982C155.699 50.3231 155.958 50.0975 156.266 49.9215C156.585 49.7344 156.921 49.5914 157.273 49.4924L158.297 49.7069C157.769 49.96 157.384 50.2131 157.141 50.4662C156.91 50.7082 156.795 50.9723 156.795 51.2584C156.795 51.5335 156.894 51.7536 157.092 51.9186C157.301 52.0837 157.593 52.1992 157.967 52.2652C158.341 52.3423 158.815 52.3808 159.387 52.3808C160.081 52.3808 160.659 52.3368 161.121 52.2487C161.595 52.1607 161.952 52.0176 162.195 51.8196C162.437 51.6215 162.558 51.3684 162.558 51.0603C162.558 50.7082 162.36 50.4607 161.963 50.3176C161.578 50.1636 160.973 50.0865 160.147 50.0865H157.653C157.037 50.0865 156.541 49.927 156.167 49.6079C155.793 49.2888 155.605 48.8927 155.605 48.4195C155.605 47.9904 155.743 47.6273 156.018 47.3302C156.294 47.0331 156.64 46.8295 157.059 46.7195L158.149 47.1981C157.785 47.3082 157.532 47.4237 157.389 47.5447C157.246 47.6658 157.174 47.8253 157.174 48.0234C157.174 48.2435 157.251 48.403 157.406 48.502C157.571 48.6011 157.802 48.6506 158.099 48.6506H160.593C161.749 48.6506 162.629 48.8597 163.235 49.2778C163.841 49.6959 164.143 50.2626 164.143 50.9778C164.143 51.55 163.956 52.0452 163.582 52.4633C163.207 52.8924 162.657 53.2225 161.93 53.4536C161.204 53.6957 160.323 53.8167 159.288 53.8167ZM159.486 47.6438C158.286 47.6438 157.345 47.3797 156.662 46.8515C155.98 46.3124 155.639 45.5806 155.639 44.6563C155.639 44.0511 155.793 43.5285 156.101 43.0883C156.409 42.6372 156.85 42.2906 157.422 42.0485C157.995 41.7954 158.672 41.6689 159.453 41.6689C160.015 41.6689 160.505 41.7404 160.923 41.8835C161.352 42.0265 161.694 42.2466 161.947 42.5437C162.222 42.6537 162.459 42.8132 162.657 43.0223C162.855 43.2204 163.009 43.4625 163.119 43.7485C163.229 44.0236 163.285 44.3262 163.285 44.6563C163.285 45.2615 163.13 45.7897 162.822 46.2408C162.514 46.692 162.074 47.0386 161.501 47.2807C160.929 47.5227 160.257 47.6438 159.486 47.6438ZM159.47 46.2738C159.954 46.2738 160.362 46.2133 160.692 46.0923C161.033 45.9712 161.292 45.7897 161.468 45.5476C161.644 45.3055 161.732 45.0084 161.732 44.6563C161.732 44.1392 161.534 43.743 161.138 43.468C160.752 43.1929 160.196 43.0553 159.47 43.0553C158.985 43.0553 158.573 43.1158 158.231 43.2369C157.89 43.3579 157.631 43.5395 157.455 43.7816C157.29 44.0126 157.207 44.2987 157.207 44.6398C157.207 45.168 157.4 45.5751 157.785 45.8612C158.171 46.1363 158.732 46.2738 159.47 46.2738ZM161.782 42.9893L160.907 42.098L163.549 41.3223L163.912 42.6262L161.782 42.9893Z" fill="black"/>
</g>
</g>
<defs>
<clipPath id="clip0_520_8058">
<rect width="61.7763" height="61.7763" fill="white"/>
</clipPath>
<clipPath id="clip1_520_8058">
<rect width="89.4206" height="42.6879" fill="white" transform="translate(74.7227 11.1289)"/>
</clipPath>
<clipPath id="clip2_520_8058">
<rect width="88.5539" height="19.791" fill="white" transform="translate(74.7227 11.1289)"/>
</clipPath>
</defs>
</svg>
