<svg width="1220" height="130" viewBox="0 0 1220 130" fill="none" xmlns="http://www.w3.org/2000/svg">
<g clip-path="url(#clip0_1120_1385)">
<path d="M103.783 126.953L98.8424 109.932C90.608 122.934 78.0801 129.435 61.2585 129.435C43.8488 129.435 29.2622 123.348 17.4989 111.173C5.85313 98.9991 0.0302734 83.5742 0.0302734 64.8989C0.0302734 46.2236 6.20603 30.7987 18.5576 18.6242C31.0267 6.44977 46.2014 0.362549 64.0817 0.362549C76.3156 0.362549 87.1967 3.08112 96.725 8.51824C106.253 13.9554 113.37 21.3428 118.076 30.6805L100.607 43.4459C92.9607 28.4347 80.668 20.9291 63.7288 20.9291C52.436 20.9291 42.9076 24.9478 35.1439 32.9853C27.4977 41.0228 23.6746 51.6606 23.6746 64.8989C23.6746 77.5462 27.2624 87.8885 34.4381 95.9259C41.7313 103.846 50.9068 107.804 61.9643 107.804C71.9632 107.804 79.7858 105.204 85.4322 100.004C91.0785 94.685 94.5488 87.9476 95.8427 79.7919H55.965V60.6437H119.134V126.953H103.783ZM140.234 126.953V2.84472H225.459V23.7659H163.525V52.3107H220.519V73.2319H163.525V106.032H225.989V126.953H140.234ZM238.735 24.475V2.84472H337.547V24.475H299.786V126.953H276.495V24.475H238.735ZM401.98 126.953V2.84472H425.271V126.953H401.98ZM449.366 126.953V2.84472H473.011L524.534 81.7421C524.77 82.0968 525.534 83.397 526.828 85.6427C528.122 87.7703 529.122 89.7206 529.827 91.4936V2.84472H552.413V126.953H528.769L477.245 47.5237C477.011 47.1691 476.246 45.8689 474.952 43.6232C473.422 41.0228 472.423 39.0726 471.952 37.7724V126.953H449.366ZM616.965 24.475V2.84472H715.777V24.475H678.017V126.953H654.725V24.475H616.965ZM827.797 18.8015C839.913 31.0941 845.971 46.4599 845.971 64.8989C845.971 83.3379 839.913 98.7037 827.797 110.997C815.68 123.289 800.564 129.435 782.449 129.435C764.333 129.435 749.217 123.289 737.101 110.997C724.985 98.7037 718.927 83.3379 718.927 64.8989C718.927 46.4599 724.985 31.0941 737.101 18.8015C749.217 6.50887 764.333 0.362549 782.449 0.362549C800.564 0.362549 815.68 6.50887 827.797 18.8015ZM753.864 96.2806C761.393 103.963 770.922 107.804 782.449 107.804C793.977 107.804 803.506 103.963 811.034 96.2806C818.562 88.4795 822.327 78.019 822.327 64.8989C822.327 51.7789 818.562 41.3774 811.034 33.6945C803.506 25.8934 793.977 21.9929 782.449 21.9929C770.922 21.9929 761.393 25.8934 753.864 33.6945C746.336 41.3774 742.571 51.7789 742.571 64.8989C742.571 78.019 746.336 88.4795 753.864 96.2806ZM964.679 2.84472V79.9692C964.679 95.4532 959.974 107.569 950.564 116.315C941.152 125.062 928.978 129.435 914.039 129.435C899.099 129.435 886.924 125.062 877.513 116.315C868.102 107.569 863.397 95.4532 863.397 79.9692V2.84472H886.688V77.6643C886.688 87.2384 889.1 94.685 893.923 100.004C898.746 105.204 905.451 107.804 914.039 107.804C922.626 107.804 929.331 105.204 934.154 100.004C938.976 94.685 941.388 87.2384 941.388 77.6643V2.84472H964.679ZM1082.98 82.9832L1101.15 96.1033C1093.27 108.041 1085.21 116.611 1076.98 121.811C1068.86 126.894 1058.34 129.435 1045.39 129.435C1027.04 129.435 1011.92 123.466 1000.04 111.528C988.164 99.5901 982.224 84.0471 982.224 64.8989C982.224 45.7507 988.282 30.2077 1000.4 18.2696C1012.63 6.33157 1027.92 0.362549 1046.28 0.362549C1058.98 0.362549 1070.09 3.31751 1079.62 9.22744C1089.16 15.1373 1096.09 22.9976 1100.45 32.808L1081.56 46.4599C1073.68 30.1486 1061.68 21.9929 1045.57 21.9929C1034.39 21.9929 1024.98 25.9525 1017.34 33.8718C1009.69 41.7911 1005.87 52.1335 1005.87 64.8989C1005.87 77.428 1009.69 87.7112 1017.34 95.7487C1024.98 103.787 1034.39 107.804 1045.57 107.804C1061.68 107.804 1074.16 99.531 1082.98 82.9832ZM1118.47 126.953V2.84472H1141.76V52.8426H1195.75V2.84472H1219.04V126.953H1195.75V74.473H1141.76V126.953H1118.47Z" fill="#353539"/>
</g>
<defs>
<clipPath id="clip0_1120_1385">
<rect width="1220" height="130" fill="white"/>
</clipPath>
</defs>
</svg>
