<svg width="201" height="51" viewBox="0 0 201 51" fill="none" xmlns="http://www.w3.org/2000/svg">
<g clip-path="url(#clip0_806_13241)">
<path fill-rule="evenodd" clip-rule="evenodd" d="M25.6377 0C11.4607 0 0 11.5452 0 25.8282C0 37.2453 7.34326 46.9097 17.5303 50.3302C18.804 50.5873 19.2705 49.7745 19.2705 49.0907C19.2705 48.4919 19.2285 46.4395 19.2285 44.301C12.0967 45.8407 10.6116 41.2221 10.6116 41.2221C9.46548 38.2287 7.76729 37.4594 7.76729 37.4594C5.43306 35.8772 7.93732 35.8772 7.93732 35.8772C10.5266 36.0483 11.8852 38.5284 11.8852 38.5284C14.177 42.4622 17.8699 41.3507 19.3555 40.6664C19.5675 38.9986 20.2471 37.8441 20.9687 37.2028C15.2806 36.604 9.29598 34.3805 9.29598 24.4595C9.29598 21.6373 10.3141 19.3282 11.9272 17.5324C11.6727 16.8911 10.7811 14.2394 12.1823 10.6903C12.1823 10.6903 14.347 10.006 19.228 13.3415C21.3177 12.7761 23.4728 12.4885 25.6377 12.4861C27.8024 12.4861 30.0091 12.7858 32.0468 13.3415C36.9283 10.006 39.0931 10.6903 39.0931 10.6903C40.4942 14.2394 39.6021 16.8911 39.3476 17.5324C41.0033 19.3282 41.9794 21.6373 41.9794 24.4595C41.9794 34.3805 35.9948 36.561 30.2641 37.2028C31.1982 38.0152 32.0043 39.5543 32.0043 41.992C32.0043 45.4555 31.9623 48.2353 31.9623 49.0901C31.9623 49.7745 32.4294 50.5873 33.7025 50.3307C43.8896 46.9092 51.2328 37.2453 51.2328 25.8282C51.2748 11.5452 39.7721 0 25.6377 0Z" fill="white"/>
</g>
<path d="M85.6335 36.1895L84.8075 32.7585C83.2614 35.3423 80.9529 36.6342 77.882 36.6342C74.7475 36.6342 72.1531 35.5541 70.0987 33.3938C68.0655 31.2124 67.0489 28.4379 67.0489 25.0705C67.0489 21.7454 68.1396 18.9921 70.3211 16.8106C72.5025 14.608 75.1499 13.5067 78.2632 13.5067C80.3599 13.5067 82.2449 13.9938 83.918 14.9681C85.6123 15.9423 86.8831 17.266 87.7302 18.9391L85.1252 20.7499C83.5368 17.9543 81.2283 16.5565 78.1997 16.5565C76.0394 16.5565 74.218 17.3507 72.7355 18.9391C71.2741 20.5064 70.5434 22.5502 70.5434 25.0705C70.5434 27.6119 71.2212 29.6557 72.5766 31.2018C73.9533 32.7479 75.7429 33.5209 77.9455 33.5209C79.8728 33.5209 81.3765 32.9808 82.4566 31.9007C83.5368 30.7994 84.2145 29.3274 84.4898 27.4849H76.9925V24.6575H87.9208V36.1895H85.6335ZM92.1917 36.1895V20.4323H95.4321V36.1895H92.1917ZM91.9693 17.9225V14.2692H95.6545V17.9225H91.9693ZM98.4893 23.0373V20.4323H101.031V16.1753H104.271V20.4323H107.798V23.0373H104.271V31.3924C104.271 32.9385 104.991 33.7115 106.431 33.7115C106.749 33.7115 107.141 33.648 107.607 33.5209L107.893 36.253C107.194 36.5071 106.41 36.6342 105.542 36.6342C102.535 36.6342 101.031 35.0776 101.031 31.9642V23.0373H98.4893ZM111.529 36.1895V13.9515H114.96V23.2914H125.316V13.9515H128.747V36.1895H125.316V26.4047H114.96V36.1895H111.529ZM133.547 30.5664V20.4323H136.788V29.8993C136.788 31.1277 137.084 32.0595 137.677 32.6949C138.291 33.3303 139.16 33.648 140.282 33.648C141.447 33.648 142.421 33.2032 143.205 32.3137C144.01 31.4242 144.412 30.3017 144.412 28.9462V20.4323H147.653V36.1895H144.412V33.648C143.353 35.6388 141.648 36.6342 139.298 36.6342C137.646 36.6342 136.269 36.1153 135.168 35.0776C134.087 34.0398 133.547 32.5361 133.547 30.5664ZM152.1 36.1895V13.9515H155.34V22.8149C155.912 21.9466 156.685 21.2582 157.659 20.7499C158.633 20.2416 159.692 19.9875 160.836 19.9875C162.954 19.9875 164.712 20.7605 166.11 22.3066C167.507 23.8315 168.206 25.8329 168.206 28.3109C168.206 30.7888 167.486 32.8008 166.046 34.3469C164.606 35.8718 162.816 36.6342 160.677 36.6342C159.47 36.6342 158.39 36.3801 157.437 35.8718C156.505 35.3423 155.806 34.6752 155.34 33.8703V36.1895H152.1ZM156.516 32.1548C157.469 33.1503 158.633 33.648 160.01 33.648C161.387 33.648 162.541 33.1503 163.473 32.1548C164.426 31.1594 164.902 29.8781 164.902 28.3109C164.902 26.7436 164.426 25.4623 163.473 24.4669C162.541 23.4714 161.387 22.9737 160.01 22.9737C158.633 22.9737 157.469 23.4714 156.516 24.4669C155.584 25.4623 155.118 26.7436 155.118 28.3109C155.118 29.8781 155.584 31.1594 156.516 32.1548Z" fill="white"/>
<defs>
<clipPath id="clip0_806_13241">
<rect width="51.4286" height="50.379" fill="white"/>
</clipPath>
</defs>
</svg>
