<svg width="116" height="35" viewBox="0 0 116 35" fill="none" xmlns="http://www.w3.org/2000/svg">
<g clip-path="url(#clip0_1120_1373)">
<mask id="mask0_1120_1373" style="mask-type:luminance" maskUnits="userSpaceOnUse" x="0" y="0" width="36" height="35">
<path d="M35.3001 0.213135H0V34.787H35.3001V0.213135Z" fill="white"/>
</mask>
<g mask="url(#mask0_1120_1373)">
<path fill-rule="evenodd" clip-rule="evenodd" d="M17.5975 0.213135C7.86652 0.213135 0 8.13628 0 17.9383C0 25.7737 5.04034 32.406 12.0326 34.7535C12.9069 34.9299 13.2271 34.3721 13.2271 33.9028C13.2271 33.4919 13.1983 32.0833 13.1983 30.6157C8.30306 31.6724 7.2837 28.5028 7.2837 28.5028C6.49702 26.4486 5.33139 25.9206 5.33139 25.9206C3.7292 24.8347 5.4481 24.8347 5.4481 24.8347C7.22536 24.9521 8.15789 26.6542 8.15789 26.6542C9.73096 29.3538 12.2657 28.591 13.2854 28.1214C13.4309 26.9768 13.8974 26.1845 14.3927 25.7444C10.4885 25.3336 6.38067 23.8076 6.38067 16.9991C6.38067 15.0622 7.0795 13.4776 8.18672 12.2452C8.01203 11.8051 7.40004 9.98531 8.36181 7.54965C8.36181 7.54965 9.84764 7.08003 13.1979 9.3691C14.6323 8.98108 16.1115 8.78371 17.5975 8.78206C19.0833 8.78206 20.598 8.98767 21.9966 9.3691C25.3472 7.08003 26.8331 7.54965 26.8331 7.54965C27.7948 9.98531 27.1825 11.8051 27.0078 12.2452C28.1443 13.4776 28.8143 15.0622 28.8143 16.9991C28.8143 23.8076 24.7065 25.304 20.773 25.7444C21.4142 26.302 21.9674 27.3583 21.9674 29.0311C21.9674 31.4081 21.9386 33.3158 21.9386 33.9025C21.9386 34.3721 22.2592 34.9299 23.1331 34.7538C30.1254 32.4057 35.1657 25.7737 35.1657 17.9383C35.1945 8.13628 27.2992 0.213135 17.5975 0.213135Z" fill="#353539"/>
</g>
<path d="M58.7778 25.049L58.2108 22.6944C57.1497 24.4676 55.5651 25.3542 53.4572 25.3542C51.3057 25.3542 49.525 24.6129 48.1148 23.1304C46.7193 21.6333 46.0215 19.7293 46.0215 17.4183C46.0215 15.1364 46.7701 13.2468 48.2675 11.7498C49.7648 10.2382 51.5819 9.48242 53.7189 9.48242C55.158 9.48242 56.4519 9.81671 57.6003 10.4853C58.7632 11.1539 59.6355 12.0623 60.2169 13.2105L58.4289 14.4532C57.3386 12.5347 55.7541 11.5754 53.6753 11.5754C52.1925 11.5754 50.9423 12.1205 49.9247 13.2105C48.9216 14.2861 48.4201 15.6887 48.4201 17.4183C48.4201 19.1625 48.8853 20.5651 49.8157 21.626C50.7606 22.6871 51.989 23.2176 53.5008 23.2176C54.8237 23.2176 55.8558 22.847 56.5973 22.1057C57.3386 21.3499 57.8038 20.3398 57.9928 19.0752H52.8467V17.1349H60.3478V25.049H58.7778ZM63.2793 25.049V14.2352H65.5034V25.049H63.2793ZM63.1267 12.5129V10.0056H65.6561V12.5129H63.1267ZM67.602 16.023V14.2352H69.3465V11.3137H71.5704V14.2352H73.9913V16.023H71.5704V21.7569C71.5704 22.8179 72.0646 23.3485 73.053 23.3485C73.2713 23.3485 73.5403 23.3048 73.8602 23.2176L74.0565 25.0926C73.5767 25.267 73.0386 25.3542 72.4428 25.3542C70.3788 25.3542 69.3465 24.2859 69.3465 22.1493V16.023H67.602ZM76.5522 25.049V9.78761H78.9072V16.1974H86.0155V9.78761H88.3705V25.049H86.0155V18.334H78.9072V25.049H76.5522ZM91.6652 21.1901V14.2352H93.8897V20.7322C93.8897 21.5752 94.0929 22.2147 94.4999 22.6508C94.9221 23.0868 95.5179 23.3048 96.288 23.3048C97.0876 23.3048 97.7562 22.9996 98.2943 22.3891C98.8469 21.7787 99.1228 21.0083 99.1228 20.0782V14.2352H101.347V25.049H99.1228V23.3048C98.3959 24.671 97.2256 25.3542 95.6126 25.3542C94.4787 25.3542 93.5335 24.9981 92.7778 24.2859C92.0358 23.5737 91.6652 22.5417 91.6652 21.1901ZM104.4 25.049V9.78761H106.624V15.8703C107.016 15.2744 107.547 14.8021 108.215 14.4532C108.884 14.1044 109.611 13.93 110.396 13.93C111.85 13.93 113.057 14.4605 114.016 15.5216C114.975 16.568 115.455 17.9416 115.455 19.6421C115.455 21.3426 114.961 22.7235 113.972 23.7844C112.984 24.8309 111.755 25.3542 110.287 25.3542C109.458 25.3542 108.717 25.1798 108.063 24.831C107.423 24.4676 106.944 24.0098 106.624 23.4574V25.049H104.4ZM107.431 22.2801C108.085 22.9633 108.884 23.3048 109.829 23.3048C110.774 23.3048 111.566 22.9633 112.206 22.2801C112.86 21.597 113.187 20.7177 113.187 19.6421C113.187 18.5666 112.86 17.6872 112.206 17.0041C111.566 16.3209 110.774 15.9794 109.829 15.9794C108.884 15.9794 108.085 16.3209 107.431 17.0041C106.791 17.6872 106.471 18.5666 106.471 19.6421C106.471 20.7177 106.791 21.597 107.431 22.2801Z" fill="#353539"/>
</g>
<defs>
<clipPath id="clip0_1120_1373">
<rect width="116" height="35" fill="white"/>
</clipPath>
</defs>
</svg>
