<svg width="103" height="95" viewBox="0 0 103 95" fill="none" xmlns="http://www.w3.org/2000/svg">
<g clip-path="url(#clip0_520_7828)">
<path d="M51.5 0C36.0393 0 23.5 12.537 23.5 28C23.5 40.3713 31.522 50.8667 42.6497 54.5697C44.0473 54.8287 44.5 53.9607 44.5 53.2233V48.0107C36.7113 49.7047 35.0897 44.7067 35.0897 44.7067C33.8157 41.4703 31.9793 40.6093 31.9793 40.6093C29.4383 38.871 32.173 38.9083 32.173 38.9083C34.9847 39.1043 36.464 41.7947 36.464 41.7947C38.9607 46.074 43.0137 44.8373 44.612 44.121C44.8617 42.3127 45.5873 41.076 46.39 40.3783C40.1717 39.6667 33.6337 37.2657 33.6337 26.5393C33.6337 23.4803 34.728 20.9837 36.5177 19.0237C36.2283 18.3167 35.2693 15.4677 36.7907 11.613C36.7907 11.613 39.1427 10.8617 44.493 14.483C46.726 13.8623 49.12 13.552 51.5 13.5403C53.88 13.552 56.2763 13.8623 58.514 14.483C63.8597 10.8617 66.207 11.613 66.207 11.613C67.7307 15.47 66.7717 18.319 66.4823 19.0237C68.279 20.9837 69.364 23.4827 69.364 26.5393C69.364 37.2937 62.8143 39.662 56.5797 40.355C57.583 41.223 58.5 42.9263 58.5 45.5397V53.2233C58.5 53.9677 58.948 54.8427 60.369 54.5673C71.4873 50.8597 79.5 40.3667 79.5 28C79.5 12.537 66.963 0 51.5 0Z" fill="#353539"/>
</g>
<path d="M20.4892 94L19.6064 90.9732C18.1351 93.2853 15.8965 94.4414 12.8908 94.4414C9.77995 94.4414 7.17358 93.3589 5.07166 91.1939C2.99077 89.029 1.95032 86.286 1.95032 82.965C1.95032 79.6439 3.05383 76.9009 5.26084 74.736C7.48886 72.571 10.2003 71.4885 13.3952 71.4885C15.5812 71.4885 17.5255 71.9719 19.2281 72.9388C20.9306 73.9057 22.2023 75.2194 23.043 76.8799L19.9217 79.15C18.5554 76.4805 16.3589 75.1458 13.3322 75.1458C11.3143 75.1458 9.6118 75.8605 8.22453 77.2898C6.85829 78.7191 6.17517 80.6108 6.17517 82.965C6.17517 85.214 6.81625 87.0532 8.09842 88.4825C9.40161 89.8908 11.0411 90.5949 13.0169 90.5949C14.8035 90.5949 16.2013 90.1325 17.2102 89.2076C18.2191 88.2618 18.8392 87.0637 19.0704 85.6134H11.9449V82.2083H23.2322V94H20.4892ZM27.0558 94V78.3618H31.0284V94H27.0558ZM26.8666 76.0917V71.9299H31.2176V76.0917H26.8666ZM33.7399 81.5777V78.3618H36.1676V74.1369H40.1402V78.3618H43.5453V81.5777H40.1402V88.7032C40.1402 90.1745 40.8023 90.9102 42.1265 90.9102C42.5469 90.9102 42.9883 90.8471 43.4507 90.721L43.8291 94C42.9883 94.2943 42.1055 94.4414 41.1807 94.4414C37.8386 94.4414 36.1676 92.7809 36.1676 89.4599V81.5777H33.7399ZM61.7066 83.4379V94H57.734V84.9828C57.734 83.9318 57.4607 83.1121 56.9142 82.5235C56.3887 81.935 55.611 81.6407 54.5811 81.6407C53.4461 81.6407 52.5212 82.0506 51.8066 82.8704C51.0919 83.6691 50.7346 84.7306 50.7346 86.0548V94H46.762V71.9299H50.7346V80.821C51.9537 78.8872 53.7614 77.9204 56.1575 77.9204C57.8601 77.9204 59.2053 78.4248 60.1932 79.4337C61.2021 80.4216 61.7066 81.7563 61.7066 83.4379ZM65.3898 88.0726V78.3618H69.3624V87.1583C69.3624 89.5334 70.4239 90.721 72.5468 90.721C73.6608 90.721 74.5436 90.3322 75.1952 89.5545C75.8468 88.7557 76.1726 87.7153 76.1726 86.4331V78.3618H80.1452V94H76.1726V91.5408C75.1427 93.4745 73.4822 94.4414 71.1911 94.4414C69.4885 94.4414 68.0907 93.8844 66.9977 92.7704C65.9258 91.6564 65.3898 90.0904 65.3898 88.0726ZM84.11 94V71.9299H88.0826V80.285C89.3227 78.7086 91.0358 77.9204 93.2218 77.9204C95.3657 77.9204 97.1418 78.6665 98.5501 80.1589C99.9794 81.6513 100.694 83.6586 100.694 86.1809C100.694 88.7032 99.9689 90.7105 98.5186 92.2029C97.0893 93.6952 95.3027 94.4414 93.1587 94.4414C90.9727 94.4414 89.2807 93.6532 88.0826 92.0767V94H84.11ZM89.06 89.4599C89.9007 90.3006 90.9622 90.721 92.2444 90.721C93.5265 90.721 94.5775 90.3006 95.3972 89.4599C96.238 88.5981 96.6584 87.5051 96.6584 86.1809C96.6584 84.8567 96.238 83.7742 95.3972 82.9334C94.5775 82.0716 93.5265 81.6407 92.2444 81.6407C90.9622 81.6407 89.9007 82.0716 89.06 82.9334C88.2402 83.7742 87.8303 84.8567 87.8303 86.1809C87.8303 87.5051 88.2402 88.5981 89.06 89.4599Z" fill="#353539"/>
<defs>
<clipPath id="clip0_520_7828">
<rect width="56" height="56" fill="white" transform="translate(23.5)"/>
</clipPath>
</defs>
</svg>
