<svg width="26" height="26" viewBox="0 0 26 26" fill="none" xmlns="http://www.w3.org/2000/svg">
<g clip-path="url(#clip0_520_8114)">
<path fill-rule="evenodd" clip-rule="evenodd" d="M3.06986 10.836C4.72082 11.2604 6.25696 11.9147 7.65249 12.7671C9.74516 11.4306 11.4961 9.68086 12.7946 7.60611L12.8276 7.55306C12.8342 7.54245 12.8408 7.53182 12.8474 7.52119C12.8532 7.51178 12.859 7.50236 12.8648 7.49294C13.7559 6.04276 14.4274 4.43633 14.8422 2.70324L14.8349 2.69396L14.8353 2.69279C14.2458 1.93181 13.5744 0.906526 13.1542 0.264849L13.1521 0.261659C13.0886 0.164682 13.0311 0.0768301 12.9805 0C11.0819 2.96063 9.49146 4.8291 7.99412 6.42144C6.58171 7.92347 5.20332 9.17906 3.06986 10.836ZM2.68826 11.1322L2.68707 11.1318C1.92671 11.7202 0.905012 12.3893 0.26494 12.8084L0.264899 12.8084L0.261666 12.8105L0.261401 12.8107L0.259538 12.8119C0.163401 12.8749 0.0762696 12.932 0 12.9822C2.96067 14.8807 4.82917 16.4712 6.42154 17.9685C7.92484 19.382 9.18129 20.7615 10.8404 22.898C11.2652 21.2453 11.9204 19.7085 12.7741 18.3127C11.4472 16.2344 9.71117 14.493 7.65422 13.1969L7.64992 13.1997L7.55322 13.1397C6.08662 12.2304 4.45797 11.5462 2.6975 11.125L2.68826 11.1322ZM11.1324 23.2743L11.1322 23.2751C11.7216 24.036 12.3928 25.061 12.8129 25.7025L12.815 25.7057C12.8785 25.8027 12.936 25.8905 12.9866 25.9674C14.8852 23.0067 16.4757 21.1383 17.973 19.5459C19.3852 18.0441 20.7635 16.7886 22.8965 15.132C21.2459 14.7074 19.7109 14.0523 18.3165 13.1991C16.2399 14.525 14.4997 16.2577 13.204 18.3111L13.205 18.3126L13.1451 18.4093C12.2356 19.8762 11.5464 21.5049 11.1251 23.265L11.1324 23.2743ZM25.7025 13.1598C25.0627 13.5788 24.0414 14.2476 23.2811 14.8358L23.2789 14.8351L23.2696 14.8424C21.5092 14.4212 19.8805 13.737 18.4139 12.8277L18.3172 12.7677L18.315 12.7691C16.259 11.4711 14.5242 9.72717 13.1972 7.64796C14.0513 6.25276 14.7026 4.72113 15.1267 3.06991C16.7859 5.2066 18.0424 6.58617 19.5458 7.99982C21.1382 9.49714 23.0067 11.0876 25.9674 12.9861C25.8905 13.0367 25.8027 13.0942 25.7057 13.1577L25.7025 13.1598Z" fill="#77F8A2"/>
</g>
<defs>
<clipPath id="clip0_520_8114">
<rect width="25.9674" height="25.9674" fill="white"/>
</clipPath>
</defs>
</svg>
