<svg width="1238" height="752" viewBox="0 0 1238 752" fill="none" xmlns="http://www.w3.org/2000/svg">
<path opacity="0.3" d="M210.842 39.8182V50H209.301V41.3593H209.241L206.805 42.9503V41.4787L209.346 39.8182H210.842Z" fill="#818197"/>
<path opacity="0.3" d="M727.979 161V159.886L731.425 156.317C731.793 155.929 732.096 155.589 732.335 155.298C732.576 155.003 732.757 154.723 732.876 154.457C732.996 154.192 733.055 153.911 733.055 153.612C733.055 153.274 732.976 152.982 732.817 152.737C732.658 152.489 732.441 152.298 732.165 152.165C731.89 152.03 731.58 151.962 731.236 151.962C730.871 151.962 730.553 152.036 730.281 152.185C730.009 152.335 729.801 152.545 729.655 152.817C729.509 153.089 729.436 153.407 729.436 153.771H727.969C727.969 153.152 728.112 152.61 728.397 152.146C728.682 151.682 729.073 151.322 729.57 151.067C730.067 150.808 730.633 150.679 731.266 150.679C731.905 150.679 732.469 150.807 732.956 151.062C733.446 151.314 733.829 151.658 734.104 152.096C734.379 152.53 734.517 153.021 734.517 153.567C734.517 153.945 734.446 154.315 734.303 154.676C734.164 155.037 733.92 155.44 733.572 155.884C733.224 156.325 732.741 156.86 732.121 157.49L730.097 159.608V159.683H734.681V161H727.979Z" fill="#818197"/>
<path opacity="0.3" d="M1.50241 -4.47496e-05L1.08538 609.022C1.0835 611.775 3.3071 614.011 6.05986 614.025L197.002 615" stroke="#0A0A29" stroke-dasharray="6 6"/>
<path opacity="0.3" d="M1 45.5L198 45.5" stroke="#0A0A29" stroke-dasharray="6 6"/>
<path opacity="0.3" d="M727.766 750.011V748.768L732.165 741.818H733.145V743.648H732.523L729.376 748.629V748.709H735.407V750.011H727.766ZM732.593 752V749.634L732.603 749.067V741.818H734.06V752H732.593Z" fill="#818197"/>
<path opacity="0.3" d="M744 155L1232.01 155.99C1234.77 155.995 1237 158.232 1237 160.99L1237 743C1237 745.761 1234.76 748 1232 748H744" stroke="#0A0A29" stroke-dasharray="6 6"/>
<path opacity="0.3" d="M221 46.0006L725.5 46C728.814 46 731.5 48.6863 731.5 52L731.5 142" stroke="#0A0A29" stroke-dasharray="6 6"/>
<path opacity="0.3" d="M210.524 619.139C209.841 619.139 209.232 619.022 208.695 618.786C208.161 618.551 207.738 618.224 207.427 617.807C207.119 617.386 206.953 616.899 206.93 616.345H208.491C208.511 616.647 208.612 616.909 208.794 617.131C208.98 617.349 209.222 617.518 209.52 617.638C209.818 617.757 210.15 617.817 210.514 617.817C210.915 617.817 211.27 617.747 211.578 617.608C211.89 617.469 212.133 617.275 212.309 617.026C212.485 616.774 212.572 616.484 212.572 616.156C212.572 615.815 212.485 615.515 212.309 615.256C212.137 614.995 211.883 614.789 211.548 614.64C211.217 614.491 210.816 614.416 210.345 614.416H209.485V613.163H210.345C210.723 613.163 211.054 613.095 211.339 612.96C211.628 612.824 211.853 612.635 212.016 612.393C212.178 612.147 212.259 611.861 212.259 611.533C212.259 611.218 212.188 610.944 212.045 610.712C211.906 610.477 211.707 610.293 211.449 610.161C211.194 610.028 210.892 609.962 210.544 609.962C210.213 609.962 209.903 610.023 209.614 610.146C209.329 610.265 209.097 610.437 208.918 610.663C208.739 610.885 208.643 611.152 208.63 611.463H207.143C207.16 610.913 207.322 610.429 207.631 610.011C207.942 609.594 208.353 609.267 208.864 609.032C209.374 608.797 209.941 608.679 210.564 608.679C211.217 608.679 211.78 608.807 212.254 609.062C212.732 609.314 213.099 609.65 213.358 610.071C213.62 610.492 213.749 610.953 213.746 611.453C213.749 612.023 213.59 612.507 213.268 612.905C212.95 613.303 212.526 613.569 211.996 613.705V613.785C212.672 613.888 213.196 614.156 213.567 614.59C213.941 615.024 214.127 615.563 214.124 616.206C214.127 616.766 213.971 617.268 213.656 617.712C213.345 618.156 212.919 618.506 212.379 618.761C211.838 619.013 211.22 619.139 210.524 619.139Z" fill="#818197"/>
</svg>
