<svg width="180" height="45" viewBox="0 0 180 45" fill="none" xmlns="http://www.w3.org/2000/svg">
<g clip-path="url(#clip0_806_13250)">
<path fill-rule="evenodd" clip-rule="evenodd" d="M176.741 0H138.392C136.558 0 135 1.45071 135 3.23786V41.76C135 43.5493 136.022 45 137.856 45H176.205C178.041 45 180 43.5493 180 41.76V3.23786C180 1.45071 178.577 0 176.741 0ZM152.143 17.1429H158.201V20.2307H158.267C159.191 18.5657 161.919 16.875 165.291 16.875C171.765 16.875 173.571 20.3121 173.571 26.6786V38.5714H167.143V27.8507C167.143 25.0007 166.005 22.5 163.344 22.5C160.112 22.5 158.571 24.6879 158.571 28.2793V38.5714H152.143V17.1429ZM141.429 38.5714H147.857V17.1429H141.429V38.5714ZM148.661 9.64286C148.661 11.8629 146.863 13.6607 144.643 13.6607C142.423 13.6607 140.625 11.8629 140.625 9.64286C140.625 7.42286 142.423 5.625 144.643 5.625C146.863 5.625 148.661 7.42286 148.661 9.64286Z" fill="#0A66C2"/>
<path d="M128.572 38.5716H122.572V36.0194H122.507C121.172 37.5666 118.854 38.8394 114.924 38.8394C109.567 38.8394 104.953 34.8087 104.953 27.8809C104.953 21.2809 109.5 16.8751 115.125 16.8751C118.607 16.8751 120.77 18.1137 122.079 19.6951H122.143V6.42871H128.572V38.5716ZM116.741 21.6966C113.066 21.6966 111 24.3173 111 27.8016C111 31.288 113.066 34.018 116.741 34.018C120.42 34.018 122.572 31.3587 122.572 27.8016C122.572 24.1459 120.42 21.6966 116.741 21.6966Z" fill="#0A66C2"/>
<path d="M102.13 35.1188C100.613 37.0838 97.4885 38.8388 92.4442 38.8388C85.7135 38.8388 81.4277 34.3838 81.4277 27.3809C81.4277 21.1602 85.3106 16.8745 92.6327 16.8745C98.9563 16.8745 102.856 21.0274 102.856 28.3324C102.856 29.0631 102.738 29.7852 102.738 29.7852H87.4942L87.5306 30.4474C87.9527 32.2945 89.3477 34.5531 92.5492 34.5531C95.3435 34.5531 97.2592 33.0509 98.1249 31.8745L102.13 35.1188ZM96.6699 25.7138C96.7127 23.4531 95.0542 21.1602 92.4399 21.1602C89.3284 21.1602 87.6677 23.5902 87.4942 25.7138H96.6699Z" fill="#0A66C2"/>
<path d="M81.4286 17.1428H73.9286L66.4286 25.7142V6.42847H60V38.5713H66.4286V27.857L74.355 38.5713H81.945L72.8571 26.8563L81.4286 17.1428Z" fill="#0A66C2"/>
<path d="M34.2852 17.1429H40.343V20.2307H40.4094C41.333 18.5657 44.0609 16.875 47.4337 16.875C53.9073 16.875 55.7137 20.9829 55.7137 26.6786V38.5714H49.2852V27.8507C49.2852 24.6964 48.1473 22.5 45.4859 22.5C42.2544 22.5 40.7137 25.0586 40.7137 28.2793V38.5714H34.2852V17.1429Z" fill="#0A66C2"/>
<path d="M23.5725 38.5714H30.0011V17.1428H23.5725V38.5714ZM26.789 13.4999C28.919 13.4999 30.644 11.7728 30.644 9.64279C30.644 7.51279 28.919 5.78564 26.789 5.78564C24.6611 5.78564 22.9297 7.51279 22.9297 9.64279C22.9297 11.7728 24.6611 13.4999 26.789 13.4999Z" fill="#0A66C2"/>
<path d="M6.42857 6.42847H0V38.5713H19.2857V32.1428H6.42857V6.42847Z" fill="#0A66C2"/>
</g>
<defs>
<clipPath id="clip0_806_13250">
<rect width="180" height="45" fill="white"/>
</clipPath>
</defs>
</svg>
