<svg width="129" height="33" viewBox="0 0 129 33" fill="none" xmlns="http://www.w3.org/2000/svg">
<g clip-path="url(#clip0_1120_1357)">
<path fill-rule="evenodd" clip-rule="evenodd" d="M126.664 0H99.181C97.8665 0 96.75 1.06386 96.75 2.37443V30.624C96.75 31.9361 97.4825 33 98.7971 33H126.28C127.596 33 129 31.9361 129 30.624V2.37443C129 1.06386 127.98 0 126.664 0ZM109.036 12.5714H113.377V14.8359H113.425C114.087 13.6149 116.042 12.375 118.459 12.375C123.098 12.375 124.393 14.8956 124.393 19.5643V28.2857H119.786V20.4239C119.786 18.3339 118.97 16.5 117.063 16.5C114.747 16.5 113.643 18.1044 113.643 20.7381V28.2857H109.036V12.5714ZM101.357 28.2857H105.964V12.5714H101.357V28.2857ZM106.54 7.07143C106.54 8.69943 105.252 10.0179 103.661 10.0179C102.07 10.0179 100.781 8.69943 100.781 7.07143C100.781 5.44343 102.07 4.125 103.661 4.125C105.252 4.125 106.54 5.44343 106.54 7.07143Z" fill="#353539"/>
<path d="M92.1434 28.2855H87.8434V26.414H87.7974C86.8406 27.5485 85.179 28.482 82.3625 28.482C78.5232 28.482 75.2168 25.5261 75.2168 20.4457C75.2168 15.6057 78.4756 12.3748 82.5068 12.3748C85.0024 12.3748 86.5519 13.2831 87.4902 14.4428H87.5363V4.71411H92.1434V28.2855ZM83.6648 15.9105C81.031 15.9105 79.5506 17.8324 79.5506 20.3875C79.5506 22.9443 81.031 24.9463 83.6648 24.9463C86.3016 24.9463 87.8434 22.9961 87.8434 20.3875C87.8434 17.7067 86.3016 15.9105 83.6648 15.9105Z" fill="#353539"/>
<path d="M73.193 25.7537C72.1057 27.1947 69.8666 28.4817 66.2516 28.4817C61.4279 28.4817 58.3564 25.2147 58.3564 20.0792C58.3564 15.5174 61.1392 12.3745 66.3867 12.3745C70.9186 12.3745 73.7136 15.4199 73.7136 20.7769C73.7136 21.3128 73.6291 21.8424 73.6291 21.8424H62.7041L62.7302 22.3279C63.0327 23.6825 64.0324 25.3388 66.3268 25.3388C68.3294 25.3388 69.7023 24.2372 70.3227 23.3745L73.193 25.7537ZM69.28 18.8567C69.3107 17.1988 68.1221 15.5174 66.2485 15.5174C64.0186 15.5174 62.8284 17.2994 62.7041 18.8567H69.28Z" fill="#353539"/>
<path d="M58.3571 12.5713H52.9821L47.6071 18.857V4.71411H43V28.2855H47.6071V20.4284L53.2878 28.2855H58.7273L52.2143 19.6945L58.3571 12.5713Z" fill="#353539"/>
<path d="M24.5713 12.5712H28.9128V14.8356H28.9604C29.6223 13.6146 31.5772 12.3748 33.9944 12.3748C38.6338 12.3748 39.9284 15.3872 39.9284 19.564V28.2855H35.3213V20.4236C35.3213 18.1105 34.5058 16.4998 32.5985 16.4998C30.2826 16.4998 29.1784 18.376 29.1784 20.7379V28.2855H24.5713V12.5712Z" fill="#353539"/>
<path d="M16.8933 28.2855H21.5005V12.5712H16.8933V28.2855ZM19.1984 9.89982C20.7249 9.89982 21.9612 8.63325 21.9612 7.07125C21.9612 5.50925 20.7249 4.24268 19.1984 4.24268C17.6735 4.24268 16.4326 5.50925 16.4326 7.07125C16.4326 8.63325 17.6735 9.89982 19.1984 9.89982Z" fill="#353539"/>
<path d="M4.60714 4.71411H0V28.2855H13.8214V23.5713H4.60714V4.71411Z" fill="#353539"/>
</g>
<defs>
<clipPath id="clip0_1120_1357">
<rect width="129" height="33" fill="white"/>
</clipPath>
</defs>
</svg>
