<svg width="144" height="48" viewBox="0 0 144 48" fill="none" xmlns="http://www.w3.org/2000/svg">
<g clip-path="url(#clip0_520_8095)">
<g clip-path="url(#clip1_520_8095)">
<path fill-rule="evenodd" clip-rule="evenodd" d="M5.67069 20.0329C8.72037 20.8168 11.558 22.0254 14.1358 23.5999C18.0014 21.1311 21.2358 17.899 23.6345 14.0665L23.6954 13.9685C23.7076 13.9489 23.7197 13.9293 23.7319 13.9096C23.7427 13.8922 23.7534 13.8749 23.7641 13.8574C25.4101 11.1786 26.6506 8.21123 27.4168 5.00983L27.4034 4.99269L27.4041 4.99052C26.3152 3.58484 25.0749 1.69091 24.2987 0.505592L24.2948 0.499698C24.1775 0.32056 24.0713 0.158279 23.9778 0.0163574C20.4707 5.48528 17.5328 8.93675 14.7669 11.8782C12.1578 14.6527 9.61166 16.9721 5.67069 20.0329ZM4.9658 20.58L4.96359 20.5793C3.55905 21.6661 1.67175 22.902 0.489401 23.6763L0.489325 23.6763L0.483354 23.6802L0.482865 23.6805L0.479423 23.6828C0.301837 23.7991 0.140887 23.9045 0 23.9973C5.469 27.5043 8.92053 30.4422 11.862 33.208C14.6389 35.8192 16.9598 38.3674 20.0245 42.3139C20.8092 39.2611 22.0195 36.4221 23.5965 33.8438C21.1455 30.0048 17.9386 26.7881 14.139 24.394L14.1311 24.399L13.9524 24.2882C11.2433 22.6086 8.23483 21.3446 4.98287 20.5666L4.9658 20.58ZM20.564 43.0091L20.5636 43.0105C21.6523 44.416 22.8922 46.3094 23.6682 47.4945L23.6721 47.5004C23.7894 47.6795 23.8957 47.8418 23.9892 47.9837C27.4962 42.5148 30.4341 39.0633 33.2 36.1219C35.8087 33.3477 38.3546 31.0286 42.2947 27.9684C39.2458 27.1842 36.4102 25.9741 33.8346 24.3979C29.9987 26.8471 26.7841 30.0478 24.3907 33.8409L24.3925 33.8438L24.2818 34.0224C22.6018 36.732 21.3287 39.7405 20.5505 42.9919L20.564 43.0091ZM47.4781 24.3254C46.2962 25.0994 44.4098 26.3347 43.0053 27.4213L43.0012 27.42L42.984 27.4335C39.7321 26.6554 36.7236 25.3915 34.0145 23.7119L33.8358 23.6011L33.8318 23.6037C30.0338 21.2059 26.8294 17.9846 24.3781 14.1438C25.9557 11.5666 27.1589 8.73731 27.9423 5.68715C31.0073 9.63407 33.3283 12.1824 36.1054 14.7938C39.0468 17.5596 42.4984 20.4975 47.9674 24.0045C47.8255 24.098 47.6632 24.2043 47.484 24.3216L47.4781 24.3254Z" fill="white"/>
</g>
<g clip-path="url(#clip2_520_8095)">
<path d="M68.6386 19.086L62.7326 33.7084H57.843L65.8092 14.5045H71.468L79.4617 33.7084H74.4897L68.6386 19.086ZM73.4458 30.5534H63.7765L64.7929 26.9321H72.3745L73.4458 30.5534Z" fill="white"/>
<path d="M81.9254 33.7084V14.5045H91.9243C93.3345 14.5045 94.5431 14.6965 95.5504 15.0806C96.5759 15.4647 97.3542 16.0225 97.8853 16.7541C98.4347 17.4674 98.7094 18.3361 98.7094 19.3603C98.7094 20.1102 98.5537 20.8052 98.2424 21.4453C97.9494 22.0854 97.519 22.625 96.9513 23.0639C96.3836 23.5029 95.7243 23.8138 94.9735 23.9967L94.8361 23.5577C96.2646 23.7772 97.4 24.335 98.2424 25.2312C99.0848 26.1091 99.506 27.1973 99.506 28.4959C99.506 29.575 99.213 30.5077 98.627 31.2942C98.0409 32.0623 97.1894 32.6567 96.0723 33.0774C94.9735 33.498 93.6733 33.7084 92.1716 33.7084H81.9254ZM86.2656 25.725V22.3232H91.0178C91.7137 22.3232 92.2815 22.25 92.721 22.1037C93.1788 21.9391 93.5176 21.7105 93.7373 21.4179C93.9571 21.107 94.067 20.7229 94.067 20.2656C94.067 19.5524 93.8198 19.0403 93.3253 18.7293C92.8308 18.4001 92.0617 18.2355 91.0178 18.2355H86.5678V29.9773H91.5398C92.2906 29.9773 92.9041 29.9042 93.3802 29.7579C93.8564 29.5932 94.2135 29.3555 94.4516 29.0446C94.6896 28.7336 94.8087 28.3404 94.8087 27.8649C94.8087 27.1333 94.534 26.5938 93.9846 26.2463C93.4352 25.8988 92.5928 25.725 91.4574 25.725H86.2656Z" fill="white"/>
<path d="M102.799 33.7084V14.5045H111.342C113.485 14.5045 115.362 14.8977 116.974 15.6842C118.603 16.4706 119.849 17.5863 120.709 19.0311C121.588 20.476 122.028 22.1586 122.028 24.079C122.028 26.0177 121.588 27.7186 120.709 29.1817C119.849 30.6266 118.603 31.7423 116.974 32.5287C115.362 33.3151 113.485 33.7084 111.342 33.7084H102.799ZM111.122 29.6755C112.368 29.6755 113.439 29.4561 114.336 29.0171C115.234 28.5599 115.921 27.9198 116.397 27.0967C116.891 26.2554 117.138 25.2587 117.138 24.1064C117.138 22.9359 116.891 21.9391 116.397 21.1161C115.921 20.2748 115.225 19.6347 114.309 19.1957C113.412 18.7568 112.349 18.5373 111.122 18.5373H107.524V29.6755H111.122Z" fill="white"/>
<path d="M137.618 33.6993L129.67 24.4356V23.5577L137.389 14.4771H143.158L134.999 23.9418L143.373 33.6993H137.618ZM125.44 33.7084L125.412 14.5045H130.164V33.7084H125.44Z" fill="white"/>
</g>
</g>
<defs>
<clipPath id="clip0_520_8095">
<rect width="143.373" height="47.9674" fill="white" transform="translate(0 0.0163574)"/>
</clipPath>
<clipPath id="clip1_520_8095">
<rect width="47.9674" height="47.9674" fill="white" transform="translate(0 0.0163574)"/>
</clipPath>
<clipPath id="clip2_520_8095">
<rect width="85.5301" height="19.2222" fill="white" transform="translate(57.843 14.4771)"/>
</clipPath>
</defs>
</svg>
