<svg width="151" height="40" viewBox="0 0 151 40" fill="none" xmlns="http://www.w3.org/2000/svg">
<g opacity="0.3" clip-path="url(#clip0_520_8031)">
<path d="M76.9091 18.8195C76.9091 16.8682 75.6978 15.4608 73.8594 15.4608C72.0203 15.4608 70.8097 16.8697 70.8097 18.8195C70.8097 20.7693 72.0188 22.1796 73.8594 22.1796C75.6993 22.1796 76.9091 20.7707 76.9091 18.8195ZM67.4688 18.8195C67.4688 15.3368 69.9381 12.374 73.1562 12.374C74.827 12.374 76.0863 13.2377 76.6425 14.028V12.6445H79.9558V24.9902H76.6493V23.6068C76.097 24.3971 74.8338 25.2621 73.1631 25.2621C69.9458 25.2621 67.4757 22.3035 67.4757 18.8152" fill="black"/>
<path d="M91.3873 12.6445L88.1928 20.5482L84.9984 12.6445H81.3438L86.692 24.9944H89.718L95.0914 12.6445H91.3873Z" fill="black"/>
<path d="M98.4659 17.383H104.154C103.768 15.729 102.483 15.1119 101.371 15.1119C99.822 15.1119 98.7806 16.0009 98.472 17.383H98.4659ZM95.1077 18.7917C95.1077 15.1119 97.7939 12.3689 101.473 12.3689C105.007 12.3689 107.984 14.9626 107.79 19.6061H98.3448C98.4659 21.0643 99.5302 22.3237 101.612 22.3237C102.775 22.3237 103.79 21.8292 104.179 20.9642H107.64C106.937 23.4635 104.517 25.2724 101.444 25.2724C97.7399 25.2724 95.1016 22.5562 95.1016 18.8016" fill="black"/>
<path d="M122.066 12.6445H118.75V24.9944H122.066V12.6445Z" fill="black"/>
<path d="M123.812 18.8195C123.812 15.2382 126.499 12.374 130.178 12.374C133.518 12.374 135.721 14.5225 136.374 17.3628H132.936C132.476 16.2512 131.606 15.4355 130.176 15.4355C128.432 15.4355 127.149 16.7457 127.149 18.8167C127.149 20.8877 128.432 22.1979 130.176 22.1979C131.602 22.1979 132.474 21.3836 132.936 20.272H136.374C135.721 23.1122 133.518 25.2607 130.178 25.2607C126.499 25.2607 123.812 22.3952 123.812 18.8139" fill="black"/>
<path d="M145.206 12.6445L141.285 17.1895V12.6445H137.969V24.9944H141.285V19.314L146.223 24.9944H150.314L144.408 18.2024L149.199 12.6445H145.206Z" fill="black"/>
<path d="M62.4065 18.3997C62.4065 16.5471 61.8543 15.4609 60.5179 15.4609C59.0904 15.4609 58.171 16.5231 58.0978 18.7956V24.9945H54.7846V18.3997C54.7846 16.5471 54.2324 15.4609 52.8974 15.4609C51.4451 15.4609 50.4773 16.5964 50.4773 18.9674V24.9903H47.1641V12.6446H50.4773V14.0534C51.2035 12.9757 52.4142 12.3431 53.6954 12.3741C55.4389 12.3741 56.6966 13.2377 57.4476 14.6451C58.1945 13.163 59.8401 12.3741 61.1902 12.3741C64.0893 12.3741 65.717 14.4733 65.717 17.8319V24.9903H62.4037L62.4065 18.3997Z" fill="black"/>
<path d="M109.469 12.6445H112.782V14.7691C113.196 13.5589 114.428 12.6445 115.784 12.6445H116.896V16.2258C116.415 16.0483 115.908 15.9567 115.395 15.9553C113.823 15.9553 112.782 17.1895 112.782 19.2394V24.9902H109.469V12.6445Z" fill="black"/>
<path d="M19.8036 0.524414C9.07461 0.523014 0.376371 9.25743 0.375 20.0312C0.373629 30.8049 9.07179 39.5394 19.8009 39.5408C30.5299 39.5421 39.2282 30.8078 39.2295 20.034V20.0312C39.2282 9.25881 30.5314 0.525822 19.8036 0.524414Z" fill="black"/>
<path d="M19.7032 23.0693V18.6978L7.79688 24.8313H29.8994V12.5645L19.7032 23.0693Z" fill="white"/>
</g>
<defs>
<clipPath id="clip0_520_8031">
<rect width="151" height="39.2846" fill="white" transform="translate(0 0.357422)"/>
</clipPath>
</defs>
</svg>
