<svg width="193" height="32" viewBox="0 0 193 32" fill="none" xmlns="http://www.w3.org/2000/svg">
<g opacity="0.4" clip-path="url(#clip0_520_8043)">
<path fill-rule="evenodd" clip-rule="evenodd" d="M29.8418 0.820312H27.1454V27.5589L29.8418 30.2554V0.820312ZM24.4489 0.820312H21.751V22.1659L24.4475 24.8624L24.4489 0.820312ZM19.0559 0.820312H16.3594V16.773L19.0559 19.4694V0.820312Z" fill="black"/>
<path fill-rule="evenodd" clip-rule="evenodd" d="M10.9721 11.4931V30.2554H13.67V14.1896L10.9721 11.4931ZM5.58187 6.10014V30.2554H8.27836V8.79663L5.58187 6.10014ZM0.300659 0.820312H0.1875V30.2554H2.88399V3.40365L0.300659 0.820312Z" fill="black"/>
<path d="M49.3438 12.0952H53.6907V15.0083H53.7666C54.1737 14.1003 54.872 13.3054 55.8642 12.6237C56.8799 11.9172 58.0749 11.5639 59.448 11.5639C60.6417 11.5639 61.6587 11.7792 62.4978 12.2083C63.3164 12.5762 64.0355 13.134 64.5954 13.8353C65.1529 14.5157 65.56 15.2981 65.8139 16.1813C66.0678 17.0645 66.1948 17.9725 66.1948 18.9068V30.2599H61.6215V20.1929C61.6215 19.663 61.5842 19.1083 61.5069 18.5273C61.4424 17.9834 61.2742 17.4568 61.0115 16.9762C60.7612 16.501 60.3941 16.0974 59.9448 15.8032C59.5129 15.4996 58.9278 15.3478 58.1908 15.3478C57.4539 15.3478 56.8178 15.4996 56.2851 15.8032C55.751 16.0806 55.3053 16.4463 54.9506 16.9003C54.6194 17.3557 54.3655 17.8842 54.1875 18.49C54.0095 19.0696 53.9212 19.663 53.9212 20.2688V30.2599H49.3451V12.0938L49.3438 12.0952ZM70.8481 21.101C70.8481 19.663 71.102 18.3645 71.6098 17.2025C72.1439 16.0171 72.8559 15.0083 73.7447 14.1762C74.6598 13.3277 75.7358 12.6712 76.909 12.2456C78.1538 11.7869 79.4711 11.556 80.7978 11.5639C82.1709 11.5639 83.4667 11.7916 84.6866 12.2456C85.9065 12.701 86.9622 13.3427 87.8509 14.1762C88.7538 15.0274 89.4683 16.0583 89.9484 17.2025C90.4811 18.3631 90.7488 19.663 90.7488 21.101C90.7488 22.5389 90.4811 23.8513 89.9484 25.0367C89.4392 26.2235 88.741 27.2447 87.8509 28.103C86.9309 28.954 85.8569 29.6214 84.6866 30.0695C83.4474 30.5529 82.1279 30.7973 80.7978 30.7898C79.4677 30.7978 78.1482 30.5538 76.909 30.0709C75.7384 29.622 74.6644 28.9536 73.7447 28.1016C72.8431 27.2269 72.1183 26.1868 71.6098 25.0381C71.102 23.8513 70.8481 22.5403 70.8481 21.101ZM75.4986 21.101C75.4986 21.8075 75.6007 22.5141 75.8036 23.2206C76.0327 23.9272 76.3625 24.5578 76.7958 25.1126C77.2277 25.6673 77.7742 26.1214 78.4352 26.4746C79.0949 26.8279 79.8842 27.0045 80.7978 27.0045C81.7127 27.0045 82.5007 26.8279 83.1617 26.4746C83.7984 26.1417 84.3571 25.6775 84.8011 25.1126C85.233 24.5578 85.5518 23.9258 85.7533 23.2206C85.9791 22.5366 86.0956 21.8213 86.0983 21.101C86.0983 20.3944 85.9838 19.7017 85.7533 19.0199C85.5605 18.3339 85.2372 17.6916 84.8011 17.128C84.3625 16.5675 83.8018 16.1144 83.1617 15.8032C82.5007 15.4499 81.7127 15.2733 80.7978 15.2733C79.8828 15.2733 79.0949 15.4499 78.4352 15.8032C77.7951 16.1144 77.2344 16.5675 76.7958 17.128C76.3625 17.6827 76.0327 18.3134 75.8036 19.0186C75.6013 19.6946 75.4991 20.3967 75.5 21.1023L75.4986 21.101ZM92.9347 15.7273V12.0938H96.1363V6.83329H100.635V12.0952H105.211V15.7287H100.636V24.1687C100.636 24.976 100.776 25.6439 101.056 26.1738C101.36 26.7037 102.022 26.9687 103.038 26.9687C103.343 26.9687 103.672 26.9438 104.03 26.8928C104.384 26.8169 104.703 26.7161 104.982 26.5892L105.134 30.1468C104.728 30.2986 104.245 30.4117 103.686 30.4876C103.127 30.5884 102.593 30.6394 102.085 30.6394C100.866 30.6394 99.8733 30.4752 99.1116 30.1468C98.3484 29.7935 97.7385 29.3271 97.2817 28.7475C96.8455 28.1329 96.5346 27.4384 96.3668 26.7037C96.2103 25.8804 96.1336 25.0439 96.1377 24.2059V15.7287H92.9361L92.9347 15.7273ZM108.98 12.0952H113.554V30.2599H108.98V12.0938V12.0952ZM108.331 5.92664C108.331 5.19525 108.599 4.56322 109.132 4.0333C109.692 3.47855 110.39 3.20117 111.229 3.20117C112.068 3.20117 112.767 3.46613 113.327 3.99604C113.911 4.49974 114.203 5.14419 114.203 5.92526C114.203 6.70772 113.911 7.36321 113.325 7.89312C112.767 8.3982 112.068 8.65074 111.228 8.65074C110.39 8.65074 109.691 8.38578 109.132 7.85586C108.599 7.30111 108.331 6.65804 108.331 5.92526V5.92664ZM118.418 21.101C118.418 19.663 118.673 18.3645 119.181 17.2025C119.683 16.0614 120.409 15.0324 121.316 14.1762C122.231 13.3277 123.307 12.6712 124.48 12.2456C125.725 11.7869 127.042 11.5559 128.369 11.5639C129.742 11.5639 131.038 11.7916 132.257 12.2456C133.477 12.701 134.532 13.3427 135.422 14.1762C136.325 15.0274 137.039 16.0583 137.519 17.2025C138.052 18.3631 138.32 19.663 138.32 21.101C138.32 22.5389 138.052 23.8513 137.519 25.0367C137.01 26.2235 136.312 27.2447 135.422 28.103C134.502 28.954 133.428 29.6215 132.257 30.0695C131.018 30.5529 129.699 30.7973 128.369 30.7898C127.039 30.7978 125.719 30.5539 124.48 30.0709C123.309 29.622 122.235 28.9536 121.316 28.1016C120.414 27.2269 119.689 26.1868 119.181 25.0381C118.673 23.8513 118.418 22.5403 118.418 21.101ZM123.069 21.101C123.069 21.8075 123.172 22.5141 123.374 23.2206C123.604 23.9272 123.933 24.5578 124.365 25.1126C124.797 25.6673 125.345 26.1214 126.005 26.4746C126.667 26.8279 127.454 27.0045 128.369 27.0045C129.284 27.0045 130.072 26.8279 130.733 26.4746C131.369 26.1417 131.928 25.6775 132.372 25.1126C132.804 24.5578 133.121 23.9258 133.324 23.2206C133.55 22.5366 133.666 21.8213 133.669 21.101C133.669 20.3944 133.553 19.7017 133.324 19.0199C133.131 18.3339 132.808 17.6916 132.372 17.128C131.933 16.5675 131.373 16.1144 130.733 15.8032C130.072 15.4499 129.284 15.2733 128.369 15.2733C127.454 15.2733 126.666 15.4499 126.005 15.8032C125.365 16.1144 124.804 16.5675 124.365 17.128C123.933 17.6827 123.604 18.3134 123.374 19.0186C123.172 19.6946 123.069 20.3952 123.069 21.101ZM143.136 12.0952H147.483V15.0083H147.559C147.966 14.1003 148.664 13.3054 149.655 12.6237C150.672 11.9172 151.867 11.5639 153.239 11.5639C154.434 11.5639 155.451 11.7792 156.289 12.2083C157.107 12.576 157.826 13.1338 158.386 13.8353C158.945 14.5157 159.352 15.2981 159.606 16.1813C159.86 17.0674 159.989 17.9849 159.987 18.9068V30.2599H155.412V20.1929C155.412 19.663 155.374 19.1083 155.298 18.5273C155.233 17.9834 155.065 17.4568 154.802 16.9762C154.552 16.5007 154.184 16.097 153.734 15.8032C153.302 15.4996 152.718 15.3478 151.982 15.3478C151.245 15.3478 150.608 15.4996 150.074 15.8032C149.556 16.0686 149.101 16.4429 148.74 16.9003C148.397 17.3825 148.139 17.9203 147.978 18.49C147.8 19.0696 147.711 19.663 147.711 20.2688V30.2599H143.136V12.0938V12.0952Z" fill="black"/>
<path d="M177.071 27.9504H176.957C176.499 28.7577 175.762 29.427 174.746 29.9555C173.729 30.4606 172.573 30.7131 171.277 30.7131C170.492 30.7068 169.71 30.6048 168.95 30.4095C168.167 30.2349 167.419 29.9278 166.739 29.5015C166.07 29.0387 165.5 28.4471 165.061 27.7614C164.629 27.03 164.414 26.133 164.414 25.0745C164.414 23.7111 164.795 22.6264 165.558 21.8191C166.346 21.0118 167.349 20.3936 168.569 19.9644C169.789 19.5366 171.136 19.2593 172.61 19.1323C174.067 18.9834 175.531 18.9078 176.995 18.906V18.4506C176.995 17.3162 176.576 16.4841 175.737 15.9528C174.924 15.3981 173.944 15.1207 172.802 15.1207C171.836 15.1207 170.908 15.3222 170.018 15.7265C169.128 16.1308 168.391 16.6221 167.807 17.2031L165.444 14.4403C166.479 13.4847 167.698 12.7503 169.027 12.282C170.362 11.8096 171.767 11.567 173.183 11.5645C174.81 11.5645 176.144 11.7908 177.186 12.2448C178.253 12.7002 179.092 13.2922 179.702 14.0236C180.312 14.755 180.731 15.5747 180.96 16.4841C181.214 17.3921 181.341 18.3002 181.341 19.2082V30.2591H177.071V27.9504ZM176.995 21.9709H175.966C175.229 21.9709 174.453 22.0082 173.639 22.0841C172.875 22.1257 172.119 22.2658 171.39 22.5008C170.704 22.7023 170.133 23.0045 169.675 23.4089C169.218 23.787 168.989 24.3169 168.989 24.9986C168.989 25.4264 169.077 25.7935 169.255 26.0957C169.459 26.3731 169.713 26.6008 170.018 26.7774C170.323 26.9541 170.667 27.081 171.048 27.1555C171.429 27.2314 171.809 27.2687 172.192 27.2687C173.768 27.2687 174.961 26.8519 175.776 26.0198C176.588 25.1877 176.995 24.0519 176.995 22.614V21.9709Z" fill="black"/>
<path d="M187.125 1.64844H191.7V30.2597H187.125V1.64844Z" fill="black"/>
</g>
<defs>
<clipPath id="clip0_520_8043">
<rect width="191.818" height="30.3597" fill="white" transform="translate(0.1875 0.820312)"/>
</clipPath>
</defs>
</svg>
