<?xml version="1.0" standalone="no"?>
<!DOCTYPE svg PUBLIC "-//W3C//DTD SVG 20010904//EN"
 "http://www.w3.org/TR/2001/REC-SVG-20010904/DTD/svg10.dtd">
<svg version="1.0" xmlns="http://www.w3.org/2000/svg"
 width="1024.000000pt" height="1024.000000pt" viewBox="0 0 1024.000000 1024.000000"
 preserveAspectRatio="xMidYMid meet">
<metadata>
Created by potrace 1.14, written by Peter Selinger 2001-2017
</metadata>
<g transform="translate(0.000000,1024.000000) scale(0.100000,-0.100000)"
fill="#000000" stroke="none">
<path d="M5100 10222 c0 -4 -33 -58 -74 -119 -41 -62 -76 -116 -77 -120 -5
-10 -162 -246 -169 -253 -3 -3 -26 -36 -52 -75 -103 -154 -402 -573 -417 -585
-3 -3 -19 -23 -34 -46 -15 -22 -35 -49 -45 -60 -9 -10 -46 -57 -81 -104 -66
-87 -257 -326 -276 -346 -5 -6 -26 -30 -45 -54 -19 -24 -39 -48 -45 -54 -5 -6
-35 -41 -65 -76 -30 -36 -59 -70 -65 -76 -5 -6 -32 -37 -60 -69 -27 -32 -57
-66 -66 -77 -30 -34 -142 -158 -173 -192 -17 -18 -78 -84 -136 -147 -139 -151
-646 -659 -784 -784 -60 -55 -114 -105 -120 -110 -6 -6 -45 -39 -86 -75 -41
-36 -79 -70 -85 -76 -5 -6 -41 -37 -80 -70 -38 -32 -72 -61 -75 -64 -5 -5
-301 -250 -330 -273 -8 -7 -42 -34 -75 -60 -171 -138 -354 -281 -485 -380 -63
-47 -120 -90 -125 -95 -6 -5 -24 -17 -40 -28 -17 -10 -32 -21 -35 -24 -7 -8
-135 -99 -205 -145 -33 -22 -62 -42 -65 -45 -6 -6 -211 -142 -443 -294 -97
-64 -177 -119 -177 -123 1 -5 40 -33 87 -63 101 -64 537 -354 569 -379 12 -9
32 -23 44 -31 41 -27 328 -232 355 -252 6 -5 28 -22 50 -38 22 -16 45 -33 50
-38 6 -4 28 -21 50 -37 46 -34 236 -181 310 -240 28 -22 68 -53 89 -70 21 -16
48 -39 61 -50 12 -11 42 -36 66 -55 49 -39 238 -199 255 -215 6 -6 35 -31 64
-56 28 -24 64 -55 79 -69 30 -28 184 -166 212 -191 94 -82 299 -279 519 -499
234 -233 331 -335 510 -534 25 -28 59 -66 77 -86 17 -19 51 -58 75 -86 24 -27
66 -77 94 -110 48 -55 112 -130 153 -180 97 -115 402 -498 506 -635 42 -55
230 -306 254 -339 51 -70 147 -211 358 -530 119 -179 218 -327 221 -330 2 -3
6 0 8 5 8 19 391 603 405 615 3 3 34 48 69 100 36 52 67 97 70 100 3 3 26 34
51 70 24 35 49 71 56 80 7 8 74 98 149 200 76 102 140 187 144 190 3 3 28 34
55 70 52 68 211 267 229 286 6 6 23 26 38 45 14 19 36 45 48 59 12 14 40 47
63 75 44 52 163 189 209 240 14 17 35 39 45 51 10 12 53 59 96 106 42 47 89
98 104 114 294 323 706 729 1023 1009 69 61 130 115 135 121 9 9 77 67 164
139 13 11 29 25 35 30 6 6 36 30 66 55 30 25 57 47 60 51 17 20 676 538 791
622 167 122 292 208 618 425 322 215 381 258 366 267 -38 22 -644 426 -710
472 -191 134 -551 398 -565 413 -3 3 -23 18 -45 35 -22 16 -42 31 -45 35 -3 3
-23 19 -45 35 -43 32 -48 36 -111 87 -22 18 -58 47 -79 63 -21 17 -48 39 -61
50 -12 12 -37 32 -55 45 -18 14 -37 30 -43 35 -6 6 -38 33 -71 60 -33 28 -73
62 -90 76 -16 15 -70 62 -120 104 -49 43 -129 114 -177 157 -48 44 -95 87
-106 96 -204 177 -818 790 -1007 1006 -5 6 -30 34 -55 61 -158 176 -407 471
-581 690 -35 44 -68 85 -74 91 -5 6 -19 23 -30 38 -11 16 -25 33 -30 40 -6 6
-52 65 -103 131 -51 66 -99 127 -106 135 -6 9 -32 42 -56 75 -25 33 -49 64
-53 70 -70 85 -648 939 -663 980 -6 15 -34 21 -34 7z m120 -3207 c78 -118 275
-388 345 -474 43 -52 212 -249 254 -296 62 -68 384 -389 447 -445 28 -25 76
-67 108 -95 32 -27 68 -58 80 -69 11 -10 37 -30 56 -45 19 -14 41 -32 48 -39
8 -7 30 -25 50 -40 21 -15 39 -29 42 -32 17 -18 250 -184 366 -260 76 -50 139
-92 141 -94 5 -5 -176 -126 -188 -126 -4 0 -9 -4 -11 -8 -1 -5 -25 -23 -53
-42 -51 -34 -311 -226 -331 -245 -7 -5 -31 -26 -55 -45 -414 -335 -816 -755
-1131 -1185 -90 -123 -258 -374 -258 -386 0 -25 -24 5 -124 158 -61 91 -115
170 -121 177 -5 6 -35 45 -65 86 -65 89 -52 72 -146 190 -69 86 -136 165 -219
259 -141 159 -362 378 -534 531 -41 36 -79 70 -85 75 -6 6 -56 47 -111 90 -55
44 -102 82 -105 85 -3 4 -23 19 -45 35 -22 17 -42 32 -45 35 -6 6 -50 37 -180
127 -58 40 -109 76 -115 81 -5 4 -45 29 -88 56 l-77 48 138 93 c236 158 467
332 638 480 326 283 629 597 852 885 36 47 69 87 72 90 13 10 208 288 276 392
38 59 72 104 75 100 3 -4 48 -70 99 -147z"/>
</g>
</svg>
