<svg width="180" height="32" viewBox="0 0 180 32" fill="none" xmlns="http://www.w3.org/2000/svg">
<g opacity="0.4" clip-path="url(#clip0_520_7984)">
<path fill-rule="evenodd" clip-rule="evenodd" d="M52.3893 20.3564C52.3893 22.825 50.937 24.2422 48.0802 24.2422H41.2474V21.3164H47.2706C48.1515 21.3164 48.5801 21.0193 48.5801 20.2651C48.5801 19.6479 48.104 19.2593 47.0564 18.5508L43.4853 15.8993C41.6759 14.5735 40.9141 13.3392 40.9141 11.8763C40.9141 9.38496 42.4378 8.24219 45.4375 8.24219H52.1036V11.1679H46.1041C45.1756 11.1679 44.7232 11.465 44.7232 12.2422C44.7232 12.8365 45.1994 13.225 46.2708 13.9107L49.8181 16.2878C51.6275 17.4764 52.3893 18.9165 52.3893 20.3564Z" fill="black"/>
<path fill-rule="evenodd" clip-rule="evenodd" d="M66.3559 11.1679H62.0383V24.2422H58.2004V11.1679H53.8828V8.24219H66.3559V11.1679Z" fill="black"/>
<path fill-rule="evenodd" clip-rule="evenodd" d="M76.6542 18.4822L74.3645 12.1506L72.0512 18.4822H76.6542ZM77.6356 21.1564H71.0465L69.925 24.2422H65.8594L72.3784 8.24219H76.3037L82.8228 24.2422H78.7572L77.6356 21.1564Z" fill="black"/>
<path fill-rule="evenodd" clip-rule="evenodd" d="M89.2951 15.785C91.3899 15.785 92.0088 15.0764 92.0088 13.385C92.0088 11.6936 91.3899 10.985 89.2951 10.985H87.6289V15.785H89.2951ZM96.2934 24.2422H92.4611L91.7232 21.1793C91.2471 19.0536 90.8186 18.4822 89.1523 18.4592H87.6289V24.2422H83.8203V8.24219H90.652C94.1987 8.24219 95.8173 9.75068 95.8173 13.0421C95.8173 15.2594 94.9128 16.6079 93.08 17.1564C94.3892 17.7507 95.0318 18.9393 95.5555 21.1793L96.2934 24.2422Z" fill="black"/>
<path fill-rule="evenodd" clip-rule="evenodd" d="M102.491 15.9908L108.404 8.24219H112.833L106.619 15.9908L113.25 24.2422H108.821L102.491 15.9908ZM98.7812 24.2422H102.491V8.24219H98.7812V24.2422Z" fill="black"/>
<path fill-rule="evenodd" clip-rule="evenodd" d="M137.702 8.24219L132.723 24.2422H130.396L126.464 11.4421L122.532 24.2422H120.182L115.25 8.24219H117.53L121.415 21.7507L125.534 8.24219H127.395L131.513 21.7507L135.422 8.24219H137.702Z" fill="black"/>
<path fill-rule="evenodd" clip-rule="evenodd" d="M147.565 18.5508L144.448 10.5278L141.308 18.5508H147.565ZM148.156 20.0822H140.717L139.088 24.2422H136.703L143.291 8.24219H145.582L152.17 24.2422H149.785L148.156 20.0822Z" fill="black"/>
<path fill-rule="evenodd" clip-rule="evenodd" d="M159.338 16.0821C161.957 16.0821 162.933 15.0994 162.933 12.9507C162.933 10.8478 161.957 9.84222 159.338 9.84222H156.362V16.0821H159.338ZM165.647 24.2422H163.433L162.838 21.4993C162.243 18.6422 161.505 17.6822 159.267 17.6364H156.362V24.2422H154.172V8.24219H160.076C163.576 8.24219 165.123 9.72783 165.123 12.7679C165.123 15.0535 164.147 16.4479 162.1 16.905C163.719 17.4993 164.457 18.8479 165.028 21.4993L165.647 24.2422Z" fill="black"/>
<path d="M171.317 9.93354V14.8021H178.648V16.3793H171.317V19.8079C171.317 21.7051 172.168 22.5507 174.107 22.5507H179.618V24.2422H173.776C170.323 24.2422 169.141 23.145 169.141 19.9908V8.24219H179.618V9.93354H171.317Z" fill="black"/>
<path fill-rule="evenodd" clip-rule="evenodd" d="M15.9422 18.052L13.1207 20.8796C13.1189 20.8812 13.1172 20.883 13.115 20.8843C13.1081 20.8888 13.0998 20.8914 13.091 20.8914C13.0665 20.8914 13.0466 20.8714 13.0466 20.8468C13.0466 20.8419 13.0473 20.837 13.0489 20.8325C13.0489 20.8324 13.0489 20.8326 13.0489 20.8325L14.1222 16.8199C14.2138 16.5322 14.1458 16.2047 13.918 15.9766L11.0964 13.1489C11.0948 13.147 11.0931 13.1453 11.0918 13.1432C11.0874 13.1364 11.0847 13.1281 11.0847 13.1192C11.0847 13.0946 11.1046 13.0746 11.1292 13.0746C11.1342 13.0746 11.139 13.0755 11.1435 13.077L15.1475 14.1527C15.4345 14.2444 15.7613 14.1763 15.9889 13.948L18.8106 11.1205C18.8124 11.1188 18.8141 11.117 18.8162 11.1157C18.8231 11.1112 18.8313 11.1086 18.8403 11.1086C18.8648 11.1086 18.8847 11.1286 18.8847 11.1532C18.8847 11.1582 18.8838 11.163 18.8823 11.1675L17.809 15.1801C17.7175 15.4677 17.7855 15.7953 18.0132 16.0234L20.8347 18.8511C20.8364 18.853 20.8381 18.8547 20.8394 18.8567C20.8438 18.8636 20.8465 18.8719 20.8465 18.8808C20.8465 18.9053 20.8265 18.9253 20.802 18.9253C20.797 18.9253 20.7922 18.9245 20.7878 18.923C20.7876 18.923 20.7879 18.923 20.7878 18.923L16.7837 17.8473C16.4967 17.7556 16.1699 17.8238 15.9422 18.052ZM31.8094 15.7053L25.0699 8.95141C24.8423 8.72325 24.5155 8.65499 24.2285 8.74672L19.7967 9.93776C19.7962 9.93765 19.7961 9.93701 19.7952 9.93733C19.7911 9.93861 19.7866 9.93936 19.7819 9.93936C19.7574 9.93936 19.7375 9.91941 19.7375 9.89477C19.7375 9.87899 19.7456 9.86523 19.758 9.85733C20.2417 9.53488 20.9749 8.95141 22.7284 7.19408C22.8907 7.03141 22.8907 6.76752 22.7284 6.60475L16.2596 0.12208C16.0973 -0.0406933 15.834 -0.0406933 15.6716 0.12208L8.93215 6.876C8.70448 7.10416 8.63647 7.43173 8.728 7.71931L9.91637 12.1606C9.91627 12.1611 9.91574 12.1612 9.91595 12.1622C9.91733 12.1663 9.91797 12.1708 9.91797 12.1754C9.91797 12.2001 9.89807 12.22 9.87348 12.22C9.85783 12.22 9.844 12.2118 9.83612 12.1994C9.51436 11.7146 8.93215 10.98 7.1787 9.22267C7.01628 9.05989 6.75296 9.05989 6.59064 9.22267L0.121817 15.7053C-0.0406058 15.8681 -0.0406058 16.132 0.121817 16.2947L6.8612 23.0486C7.08887 23.2767 7.41574 23.345 7.70269 23.2533L12.1345 22.0622C12.1351 22.0623 12.1351 22.063 12.136 22.0627C12.1402 22.0614 12.1446 22.0606 12.1492 22.0606C12.1738 22.0606 12.1937 22.0806 12.1937 22.1052C12.1937 22.1209 12.1856 22.1348 12.1733 22.1428C12.1732 22.1428 12.1733 22.1427 12.1733 22.1428C11.6894 22.4651 10.9564 23.0486 9.20282 24.8059C9.0404 24.9687 9.0404 25.2325 9.20282 25.3953L15.6716 31.8779C15.834 32.0407 16.0973 32.0407 16.2596 31.8779L22.999 25.124C23.2267 24.8958 23.2948 24.5683 23.2032 24.2807L22.0149 19.8394C22.0149 19.8388 22.0155 19.8388 22.0152 19.8379C22.0139 19.8337 22.0133 19.8293 22.0133 19.8246C22.0133 19.7999 22.0332 19.78 22.0577 19.78C22.0734 19.78 22.0872 19.7882 22.0951 19.8006C22.4168 20.2854 22.999 21.0201 24.7525 22.7773C24.915 22.9401 25.1782 22.9401 25.3406 22.7773L31.8094 16.2947C31.9717 16.132 31.9717 15.8681 31.8094 15.7053Z" fill="black"/>
</g>
<defs>
<clipPath id="clip0_520_7984">
<rect width="179.613" height="32" fill="white"/>
</clipPath>
</defs>
</svg>
