<svg width="147" height="32" viewBox="0 0 147 32" fill="none" xmlns="http://www.w3.org/2000/svg">
<g opacity="0.4" clip-path="url(#clip0_520_7998)">
<path d="M0.453125 15.9517C0.453125 24.5103 7.66142 31.4482 16.5535 31.4482C25.4457 31.4482 32.6544 24.5103 32.6544 15.9517C32.6544 7.39308 25.4457 0.455078 16.5535 0.455078C7.66142 0.455078 0.453125 7.39306 0.453125 15.9517Z" fill="black" stroke="black"/>
<path fill-rule="evenodd" clip-rule="evenodd" d="M9.26383 12.2061L9.67159 10.9936C9.75448 10.747 9.9567 10.5551 10.2139 10.4794L11.4798 10.1047C11.655 10.0532 11.6565 9.81524 11.4827 9.761L10.2224 9.36851C9.96665 9.28875 9.76726 9.09409 9.68817 8.84659L9.29933 7.62811C9.24583 7.4599 8.99861 7.45807 8.94223 7.62584L8.53447 8.83837C8.45158 9.08453 8.24936 9.27643 7.99219 9.35257L6.72624 9.72681C6.55102 9.77877 6.54912 10.0163 6.7234 10.0705L7.98366 10.463C8.23941 10.5428 8.43881 10.7379 8.51789 10.9854L8.90673 12.2034C8.96024 12.3721 9.20746 12.3739 9.26383 12.2061Z" fill="#FAFAFA"/>
<path fill-rule="evenodd" clip-rule="evenodd" d="M29.2781 11.5007C28.7564 10.939 27.9417 10.6227 27.1499 10.493C26.3517 10.3685 25.5147 10.38 24.7268 10.5148C23.1324 10.7743 21.684 11.4098 20.4207 12.1936C19.7646 12.5783 19.2052 13.0235 18.6255 13.4768C18.3463 13.7061 18.0916 13.9503 17.8265 14.1909L17.1019 14.8848C16.3146 15.6769 15.5386 16.3984 14.7877 16.9964C14.0339 17.5916 13.329 18.0437 12.6345 18.3594C11.9403 18.6768 11.1976 18.8634 10.2295 18.8933C9.26987 18.9258 8.13455 18.7591 6.92014 18.484C5.69921 18.2101 4.4171 17.8196 2.98438 17.4836C3.48429 18.8185 4.23709 19.9981 5.20361 21.0764C6.18146 22.136 7.40251 23.1019 8.97109 23.737C10.517 24.3863 12.4598 24.6193 14.2763 24.2677C16.0976 23.9302 17.6959 23.119 18.9879 22.1809C20.2831 21.2332 21.331 20.1536 22.2145 19.0311C22.4583 18.7211 22.5873 18.5475 22.7638 18.3051L23.2516 17.6097C23.5906 17.1795 23.8992 16.6897 24.2348 16.2635C24.8926 15.3709 25.541 14.4793 26.2946 13.6579C26.6739 13.2413 27.0739 12.8428 27.5461 12.4598C27.7817 12.2729 28.036 12.0899 28.3179 11.9251C28.6039 11.7474 28.9061 11.6083 29.2781 11.5007Z" fill="black"/>
<path fill-rule="evenodd" clip-rule="evenodd" d="M29.2781 11.5002C28.7175 10.1385 27.6751 8.99225 26.2762 8.14643C24.8855 7.30988 22.9543 6.88297 21.0406 7.24689C20.095 7.42289 19.179 7.76172 18.3752 8.21294C17.575 8.66239 16.858 9.20339 16.2372 9.7838C15.9274 10.075 15.6461 10.3787 15.3666 10.6842L14.6424 11.573L13.5237 13.0037C12.0976 14.8445 10.5619 17.0017 8.04162 17.641C5.5675 18.2685 4.49443 17.7127 2.98438 17.4831C3.26049 18.1693 3.60249 18.8356 4.06617 19.4217C4.52119 20.0198 5.05864 20.5815 5.72683 21.0629C6.06451 21.2941 6.42102 21.5223 6.81699 21.7159C7.21115 21.9029 7.6362 22.0675 8.0899 22.1915C8.99238 22.4296 10.0084 22.5129 10.9922 22.3849C11.9764 22.2585 12.9171 21.9583 13.7394 21.5596C14.5678 21.1647 15.2894 20.6837 15.9337 20.1761C17.2146 19.1523 18.2108 18.0211 19.0524 16.8776C19.4757 16.306 19.8599 15.7235 20.2153 15.1408L20.6335 14.4472C20.7614 14.2444 20.8908 14.0404 21.0222 13.8504C21.5521 13.087 22.0704 12.475 22.7 12.0155C23.3208 11.5442 24.1855 11.196 25.3407 11.1151C26.4912 11.0332 27.8194 11.1845 29.2781 11.5002Z" fill="#FAFAFA"/>
<path fill-rule="evenodd" clip-rule="evenodd" d="M23.0469 22.8143C23.0469 23.8143 23.8898 24.6256 24.9288 24.6256C25.968 24.6256 26.8096 23.8143 26.8096 22.8143C26.8096 21.8142 25.968 21.0029 24.9288 21.0029C23.8898 21.0029 23.0469 21.8142 23.0469 22.8143Z" fill="black"/>
<path d="M144.405 11.5061V9.6772C144.405 9.60469 144.343 9.5459 144.268 9.5459H133.441C133.366 9.5459 133.305 9.60469 133.305 9.6772V11.5061H137.705V23.3382H140.004V11.5061H144.405Z" fill="black"/>
<path d="M121.988 9.5459C121.913 9.5459 121.852 9.60467 121.852 9.6772V23.2067C121.852 23.2792 121.913 23.3382 121.988 23.3382H131.099C131.175 23.3382 131.236 23.2792 131.236 23.2067V21.3972H124.151V17.0627H130.004V15.1607H124.151V11.4867H130.731V9.6772C130.731 9.60469 130.67 9.5459 130.595 9.5459H121.988Z" fill="black"/>
<path d="M116.706 23.2578L116.755 23.3382H118.521C118.597 23.3382 118.658 23.2792 118.658 23.2067V9.6772C118.658 9.60469 118.597 9.5459 118.521 9.5459H116.399V19.0977C116.031 18.5331 115.603 17.9116 115.116 17.2333C114.495 16.3505 113.828 15.455 113.114 14.5468C112.413 13.6257 111.698 12.7368 110.97 11.8802C110.255 11.0101 109.579 10.2491 108.943 9.5976L108.892 9.5459H107.23C107.155 9.5459 107.094 9.60467 107.094 9.6772V23.2067C107.094 23.2792 107.155 23.3382 107.23 23.3382H109.352V13.1055C109.643 13.4354 109.952 13.8009 110.279 14.2023C110.722 14.7445 111.178 15.3258 111.648 15.9461L111.649 15.9468L111.649 15.9474C112.119 16.5544 112.588 17.1874 113.058 17.8463L113.059 17.8472L113.06 17.848C113.543 18.5073 114.006 19.16 114.449 19.8061L114.45 19.8067L114.45 19.8073C114.893 20.44 115.302 21.0533 115.677 21.6468L115.678 21.6478L115.679 21.649C116.068 22.2437 116.411 22.7801 116.706 23.2578Z" fill="black"/>
<path d="M104.316 9.8206L104.368 9.76565C104.448 9.68136 104.385 9.5459 104.267 9.5459H101.75L101.699 9.60285C101.365 9.97589 100.949 10.4142 100.453 10.9182C99.9688 11.4097 99.4513 11.9273 98.9001 12.4708C98.3491 13.0141 97.7913 13.5574 97.2269 14.1007C96.7755 14.5249 96.3541 14.9159 95.9629 15.2737V9.5459H93.8004C93.7251 9.5459 93.6641 9.60467 93.6641 9.6772V23.2067C93.6641 23.2792 93.7251 23.3382 93.8004 23.3382H95.9629V17.0811C96.4376 17.3803 96.9229 17.7303 97.4187 18.1316L97.4195 18.1322L97.4201 18.1327C98.0206 18.608 98.6082 19.1285 99.1828 19.6944L99.1841 19.6957L99.1855 19.6971C99.7729 20.2497 100.327 20.8343 100.848 21.4512L100.848 21.4518L100.849 21.4526C101.37 22.0565 101.83 22.6597 102.229 23.2623L102.279 23.3382H104.733C104.838 23.3382 104.904 23.2289 104.851 23.1413L104.822 23.0922C104.454 22.4754 103.991 21.8279 103.436 21.1497C102.895 20.4724 102.313 19.8085 101.691 19.1577C101.069 18.5068 100.433 17.8947 99.7833 17.3216C99.1949 16.8024 98.6327 16.3566 98.0968 15.9849C98.5526 15.5567 99.0358 15.0969 99.5464 14.6055C100.112 14.061 100.678 13.5101 101.243 12.9527C101.822 12.3823 102.375 11.8313 102.9 11.2997L102.901 11.299L102.902 11.2982C103.427 10.754 103.898 10.2614 104.316 9.8206Z" fill="black"/>
<path fill-rule="evenodd" clip-rule="evenodd" d="M80.6129 9.44268C80.5376 9.4427 80.4766 9.50149 80.4766 9.57398V23.2152C80.4766 23.2878 80.5376 23.3466 80.6129 23.3466H82.5611V18.3311H85.4069C85.727 18.7 86.0392 19.0861 86.3439 19.4892L86.3449 19.4907L86.3462 19.4922C86.8443 20.1208 87.3045 20.7765 87.7271 21.4596L87.7275 21.4602L87.7279 21.461C88.1106 22.0654 88.4445 22.6623 88.7299 23.2518L88.7757 23.3466H91.081C91.1799 23.3466 91.2458 23.2486 91.2048 23.162C90.9397 22.6029 90.6524 22.0553 90.3333 21.522C89.8996 20.7765 89.4239 20.0384 88.9064 19.3077C88.6105 18.8902 88.3084 18.4846 88 18.0908C88.8598 17.8378 89.5402 17.3802 90.0322 16.7161L90.0326 16.7156C90.6233 15.9118 90.916 14.9665 90.916 13.8868C90.916 13.1449 90.782 12.466 90.5108 11.8526C90.2386 11.2303 89.8289 10.7141 89.2832 10.3069C88.7412 9.89759 88.0736 9.63712 87.2871 9.52031C87.1038 9.48776 86.9143 9.46828 86.719 9.46166C86.5283 9.44904 86.3619 9.4426 86.2203 9.4426C85.6227 9.4426 85.0249 9.44254 84.4273 9.44248C83.1558 9.44236 81.8844 9.44228 80.6129 9.44268ZM88.7924 13.8868C88.7924 14.2452 88.7305 14.5978 88.6059 14.9454C88.4842 15.2792 88.2898 15.5718 88.0211 15.8246C87.7664 16.064 87.4306 16.2338 87.0051 16.3289C86.8702 16.3583 86.7251 16.3792 86.5691 16.3912L86.5689 16.3912L86.5687 16.3913C86.4154 16.4036 86.2799 16.4096 86.1616 16.4096H82.5611V11.3641H86.1616C86.2799 11.3641 86.4154 11.3701 86.5687 11.3824L86.5722 11.3827L86.576 11.3828C86.7276 11.3887 86.8681 11.409 86.9984 11.4432L87.0026 11.4443L87.0069 11.4452C87.4308 11.5339 87.7655 11.7031 88.0196 11.9477L88.0202 11.9484L88.0211 11.949C88.2893 12.2015 88.4838 12.497 88.6059 12.8373V12.8377L88.6061 12.8382C88.7303 13.1791 88.7924 13.5284 88.7924 13.8868Z" fill="black"/>
<path fill-rule="evenodd" clip-rule="evenodd" d="M75.3608 21.5172L75.361 21.5178L75.3613 21.5184C75.5635 22.0767 75.7792 22.6478 76.0086 23.2319L76.0502 23.3382H78.3564C78.4511 23.3382 78.517 23.2476 78.4846 23.1618C77.9808 21.8297 77.4723 20.4992 76.9535 19.1725C76.4822 17.9541 76.0176 16.8002 75.5595 15.711C75.1149 14.6217 74.6702 13.584 74.2254 12.598C73.7792 11.5959 73.3096 10.6037 72.8205 9.62038C72.7977 9.57484 72.75 9.5459 72.6975 9.5459H70.8581C70.8056 9.5459 70.7577 9.57484 70.7351 9.62038C70.2459 10.6037 69.7764 11.596 69.3302 12.5981C68.8855 13.5838 68.4342 14.6211 67.9763 15.7101L67.9759 15.7109L67.9757 15.7117C67.5311 16.8006 67.0732 17.9542 66.6021 19.1724C66.0831 20.4992 65.5746 21.8297 65.0709 23.1618C65.0384 23.2476 65.1043 23.3382 65.199 23.3382H67.4067L67.4069 23.3379H67.45L67.5006 23.2856C68.0332 22.7354 68.6285 22.1952 69.2867 21.6655L69.2873 21.6651L69.288 21.6645C69.9487 21.1215 70.6377 20.618 71.3547 20.1537L71.3564 20.1526L71.3578 20.1514C72.0642 19.6711 72.7751 19.2401 73.4904 18.8582L73.4913 18.8578L73.4921 18.8573C73.7497 18.7162 74.0034 18.5847 74.253 18.4629L74.7356 19.7897L74.736 19.7907C74.951 20.3728 75.1593 20.9482 75.3608 21.5172ZM72.8799 14.9749L72.8803 14.976L72.8807 14.9771C73.075 15.4504 73.2692 15.9316 73.4635 16.4208C73.449 16.427 73.4342 16.4334 73.4191 16.44C72.7356 16.7397 72.0008 17.127 71.2152 17.6013C70.4631 18.0554 69.7168 18.5487 68.9766 19.0811L69.2901 18.2196C69.7047 17.0999 70.1193 16.0187 70.534 14.976C70.9152 14.0357 71.3123 13.1312 71.725 12.2626C72.1257 13.1309 72.5106 14.035 72.8799 14.9749Z" fill="black"/>
<path d="M65.6311 11.5061V9.6772C65.6311 9.60469 65.57 9.5459 65.4945 9.5459H54.6676C54.5923 9.5459 54.5312 9.60469 54.5312 9.6772V11.5061H58.9315V23.2067C58.9315 23.2792 58.9926 23.3382 59.0681 23.3382H61.0942C61.1695 23.3382 61.2306 23.2792 61.2306 23.2067V11.5061H65.6311Z" fill="black"/>
<path d="M44.5972 23.1703L44.5965 23.1701C43.7626 22.8279 43.0691 22.3395 42.5191 21.7043L42.5185 21.7035L42.5179 21.7029C41.9736 21.0597 41.62 20.3014 41.4559 19.4319C41.4477 19.3884 41.458 19.3436 41.4845 19.3075C41.5111 19.2715 41.5516 19.2473 41.597 19.2404L43.431 18.9622C43.5178 18.949 43.6008 19.0015 43.6225 19.0834C43.8454 19.9169 44.3042 20.5638 44.9997 21.0327C45.7056 21.4976 46.538 21.7325 47.504 21.7325C48.1307 21.7325 48.6907 21.6393 49.1865 21.456C49.6879 21.2664 50.0772 21.0005 50.3614 20.6616C50.641 20.3283 50.7821 19.9336 50.7821 19.4697C50.7821 19.1817 50.729 18.9459 50.6305 18.7564C50.6297 18.7547 50.6288 18.753 50.628 18.7513C50.5322 18.5494 50.3984 18.3808 50.2259 18.2435C50.2242 18.2422 50.2225 18.2409 50.2211 18.2395C50.0479 18.0907 49.8491 17.965 49.6239 17.8626C49.3935 17.7578 49.1532 17.6714 48.9029 17.6035L48.9006 17.6029L45.2424 16.5571C44.8351 16.4395 44.4414 16.2925 44.0612 16.1161L44.0602 16.1156L44.0589 16.115C43.6729 15.9292 43.3271 15.6997 43.0222 15.4264L43.0214 15.4255L43.0208 15.425C42.7117 15.1411 42.4666 14.8035 42.2854 14.4141L42.2849 14.4132C42.1005 14.0106 42.0112 13.5426 42.0112 13.0135C42.0112 12.1654 42.2389 11.4329 42.7021 10.8252L42.7023 10.8249C43.1673 10.2169 43.7944 9.75489 44.5773 9.43757C45.3593 9.12071 46.2365 8.96731 47.2063 8.97383C48.1891 8.98035 49.0731 9.15003 49.8552 9.48662C50.6433 9.8165 51.2969 10.2928 51.813 10.9153C52.337 11.5392 52.6864 12.2837 52.8639 13.1447C52.8729 13.188 52.8633 13.233 52.8373 13.2694C52.8114 13.3059 52.7712 13.3307 52.7261 13.3383L50.8423 13.6549C50.7976 13.6624 50.7518 13.6525 50.7148 13.6273C50.6775 13.6021 50.6524 13.5638 50.6449 13.5208C50.5498 12.9836 50.3386 12.5279 50.0137 12.1491L50.0118 12.1469C49.6906 11.759 49.2879 11.4617 48.8007 11.2547L48.799 11.2539C48.3108 11.0403 47.7729 10.9295 47.1833 10.9233H47.1831C46.6179 10.9171 46.1127 11.0037 45.6648 11.1797C45.2157 11.3563 44.8652 11.5999 44.6068 11.908L44.6057 11.9092C44.3521 12.2055 44.226 12.5458 44.226 12.9368C44.226 13.3251 44.341 13.6246 44.5587 13.851C44.7935 14.0888 45.0823 14.2808 45.4277 14.4261C45.7938 14.5707 46.1491 14.6899 46.4939 14.7838L46.4947 14.784L49.2247 15.5416C49.543 15.6264 49.9064 15.7431 50.3145 15.8912C50.7417 16.0438 51.1537 16.2588 51.5501 16.5351C51.9583 16.8129 52.2935 17.1839 52.5567 17.644C52.8273 18.1102 52.9569 18.6898 52.9569 19.3737C52.9569 20.0612 52.8127 20.6791 52.5195 21.2233C52.2351 21.7641 51.8357 22.2183 51.3235 22.5848L51.3222 22.5856C50.8128 22.9435 50.223 23.2136 49.5551 23.3973C48.8868 23.5875 48.173 23.6821 47.4143 23.6821C46.3783 23.6821 45.4382 23.5126 44.5972 23.1703Z" fill="black"/>
</g>
<defs>
<clipPath id="clip0_520_7998">
<rect width="146.286" height="32" fill="white"/>
</clipPath>
</defs>
</svg>
