<svg width="181" height="32" viewBox="0 0 181 32" fill="none" xmlns="http://www.w3.org/2000/svg">
<g opacity="0.4" clip-path="url(#clip0_520_7971)">
<path fill-rule="evenodd" clip-rule="evenodd" d="M106.433 8.92413C103.209 9.71027 101.697 12.1567 102.614 15.1062C103.007 16.3701 104.214 17.645 105.923 18.5986C109.001 20.3169 109.907 21.0128 110.434 22.0613C110.873 22.9359 110.911 23.2283 110.689 24.0211C110.17 25.8822 108.812 26.9085 106.871 26.9085C104.889 26.9085 103.498 25.8329 103.187 24.0611C103.062 23.3486 102.909 23.1211 102.553 23.1211C102.128 23.1211 102.084 23.3097 102.084 25.1143V27.1071L103.372 27.5308C105.385 28.1923 108.248 28.1133 109.956 27.3491C113.284 25.8603 114.56 22.9054 113.066 20.1442C112.507 19.1115 111.106 17.9587 108.704 16.557C106.179 15.0834 105.055 14.0115 104.89 12.9221C104.636 11.248 106.192 9.8625 108.319 9.86841C109.985 9.87291 110.7 10.2545 111.29 11.4542C111.66 12.2053 111.925 12.4536 112.362 12.4602C112.847 12.4673 112.919 12.38 112.795 11.9361C112.714 11.6433 112.646 10.909 112.644 10.3045C112.642 9.53677 112.527 9.16321 112.263 9.06592C111.546 8.80033 107.358 8.69854 106.433 8.92413ZM41.6875 9.62814C41.6875 9.96877 41.8512 10.1016 42.2712 10.1016C43.4567 10.1016 43.5201 10.4325 43.6515 17.2978C43.7662 23.2955 43.8087 23.7745 44.3042 24.6597C45.014 25.9279 45.9765 26.7718 47.4571 27.4239C48.4713 27.8705 49.1116 27.9654 51.1398 27.9694C53.34 27.9734 53.7408 27.9047 55.0015 27.3078C55.7751 26.9414 56.7388 26.255 57.1429 25.7822C58.5441 24.1434 58.6924 23.3515 58.8513 16.6615C59.0042 10.2195 59.0251 10.1148 60.1623 10.1051C60.427 10.103 60.5918 9.91977 60.5918 9.62814C60.5918 9.18098 60.4281 9.1547 57.6457 9.1547C54.8956 9.1547 54.6996 9.18522 54.6996 9.6132C54.6996 9.95646 54.8984 10.0902 55.4918 10.1458C56.7958 10.2677 56.9015 10.7526 56.9055 16.6275C56.9097 22.5835 56.6995 23.7295 55.3815 24.9355C54.1558 26.0574 53.1803 26.4352 51.5104 26.4352C49.1117 26.4352 47.4119 25.3548 46.8546 23.4761C46.6669 22.8444 46.598 20.5209 46.647 16.493L46.7205 10.4566L47.5797 10.1894C48.0524 10.0424 48.4747 9.74957 48.5184 9.5384C48.5886 9.19919 48.1974 9.1547 45.1425 9.1547C41.8512 9.1547 41.6875 9.1772 41.6875 9.62814ZM64.52 9.62814C64.52 9.99458 64.6839 10.1016 65.245 10.1016C66.4953 10.1016 67.1994 10.5665 67.4819 11.5785C67.6428 12.1539 67.7121 14.9022 67.6648 18.8302C67.5807 25.8434 67.4812 26.3022 65.9822 26.5912C65.4879 26.6865 65.2566 26.8727 65.2566 27.1749C65.2566 27.5878 65.4968 27.6186 68.6938 27.6186C71.8347 27.6186 72.1309 27.5823 72.1309 27.1944C72.1309 26.8923 71.8165 26.6889 71.0389 26.4885C70.0733 26.2393 69.9172 26.1036 69.6899 25.315C69.3985 24.3029 69.3295 13.6414 69.6145 13.6723C69.7156 13.6831 70.6681 14.6685 71.7309 15.8619C72.7935 17.0551 75.7007 20.1885 78.1914 22.8251C82.09 26.9517 82.8192 27.6186 83.4318 27.6186H84.1431L84.2137 19.2268C84.2635 13.2684 84.3664 10.7556 84.5679 10.5613C84.7243 10.4107 85.2215 10.2147 85.6726 10.1257C86.1517 10.0313 86.4935 9.81987 86.4935 9.61844C86.4935 9.3358 85.8813 9.26122 83.1177 9.20724C79.8674 9.14381 79.7419 9.15919 79.7419 9.62149C79.7419 9.97277 79.9027 10.1016 80.3419 10.1016C80.6721 10.1016 81.252 10.3584 81.6309 10.6725L82.3198 11.2435L82.3971 16.9456C82.4411 20.165 82.3796 22.6476 82.2567 22.6476C82.1369 22.6476 81.3872 21.9287 80.5909 21.0497C79.7946 20.1709 77.5272 17.7476 75.552 15.6646C73.5768 13.5813 71.4191 11.2731 70.7571 10.5352L69.553 9.19353L67.0366 9.17411C64.6771 9.15588 64.52 9.18429 64.52 9.62814ZM90.2989 9.62814C90.2989 9.98913 90.4628 10.1016 90.9886 10.1016C91.368 10.1016 91.8926 10.2526 92.1547 10.4372C92.6045 10.7542 92.6356 11.1628 92.7082 17.7163C92.7988 25.8998 92.7243 26.3584 91.2717 26.5824C90.54 26.6954 90.2989 26.8424 90.2989 27.1757C90.2989 27.5889 90.5463 27.6186 93.9816 27.6186C97.5006 27.6186 97.6643 27.5977 97.6643 27.1453C97.6643 26.8086 97.5006 26.6719 97.0975 26.6719C96.7857 26.6719 96.3163 26.5208 96.054 26.3362C95.6025 26.0181 95.5738 25.6088 95.5062 18.534C95.4371 11.2866 95.4496 11.0534 95.9359 10.5845C96.2112 10.3189 96.7129 10.1016 97.0506 10.1016C97.5006 10.1016 97.6643 9.9754 97.6643 9.62814C97.6643 9.17576 97.5006 9.1547 93.9816 9.1547C90.4626 9.1547 90.2989 9.17576 90.2989 9.62814ZM116.007 9.62814C116.086 9.92144 116.341 10.1016 116.677 10.1016C116.976 10.1016 117.461 10.3494 117.757 10.6527C118.057 10.9604 119.735 14.8519 121.56 19.4705L124.827 27.7372L125.684 27.8079L126.54 27.8786L128.836 22.0082C130.098 18.7796 131.263 15.8825 131.425 15.5699C131.703 15.0351 131.765 15.1165 132.502 16.9904C132.933 18.084 134.079 20.976 135.049 23.417L136.812 27.8555H137.59C138.017 27.8555 138.423 27.714 138.492 27.5409C138.561 27.368 139.689 24.5717 140.999 21.3269C142.309 18.0825 143.76 14.4879 144.223 13.3394C145.279 10.7239 145.49 10.401 146.332 10.1181C146.706 9.99243 147.012 9.72427 147.012 9.52211C147.012 9.21058 146.565 9.1547 144.066 9.1547C141.284 9.1547 141.12 9.18098 141.12 9.62814C141.12 9.97114 141.284 10.1016 141.714 10.1016C142.668 10.1016 143.084 10.3515 143.084 10.9251C143.084 11.4038 138.408 23.6847 138.12 23.9623C137.943 24.133 133.72 12.7249 133.567 11.6635C133.419 10.6323 133.874 10.1016 134.906 10.1016C135.309 10.1016 135.473 9.96498 135.473 9.62814C135.473 9.17506 135.309 9.1547 131.668 9.1547C128.026 9.1547 127.862 9.17506 127.862 9.62814C127.862 9.89799 128.026 10.1016 128.243 10.1016C129.009 10.1016 130.025 10.8155 130.286 11.538C130.661 12.5746 130.375 13.6256 128.167 19.3092L126.292 24.1376L125.888 23.215C125.666 22.7077 124.51 19.7143 123.319 16.563C120.98 10.3724 120.946 10.1016 122.491 10.1016C123.034 10.1016 123.198 9.99198 123.198 9.62814C123.198 9.17576 123.034 9.1547 119.538 9.1547C115.999 9.1547 115.883 9.17032 116.007 9.62814ZM165.727 9.78887C165.727 9.78887 165.727 10.112 165.768 10.2019C165.809 10.2919 166.073 10.3256 166.073 10.3256C166.237 10.3682 166.393 10.4056 166.54 10.4408C167.282 10.6186 167.803 10.7435 168.012 11.2149C168.152 11.5333 168.161 12.6404 168.163 18.5757C168.165 24.8343 168.163 25.6014 167.991 26.0148C167.776 26.5278 167.365 26.8001 166.417 27.0575C166.417 27.0575 165.998 27.1705 165.885 27.2714C165.772 27.3723 165.751 27.5977 165.751 27.5977C165.751 27.5977 165.742 27.807 165.839 27.9075C165.935 28.008 166.193 27.96 166.193 27.96L168.65 27.9663L172.725 27.9981C172.725 27.9981 172.892 28.0194 172.978 27.9128C173.065 27.8062 173.042 27.5971 173.042 27.5971C173.042 27.5971 173.042 27.3735 172.935 27.2729C172.828 27.1722 172.411 27.0777 172.411 27.0777C171.491 26.8587 171.019 26.573 170.81 26.1092C170.655 25.7647 170.638 24.8341 170.615 22.8964V20.0553C170.718 20.1113 170.812 20.1751 170.911 20.2424C171.381 20.5604 171.969 20.9586 174.166 21.0201C176.828 21.0947 178.43 19.9486 179.382 18.6174C180.334 17.2862 180.704 15.1949 180.005 12.9671C179.306 10.7392 177.256 9.39101 174.374 9.25163C172.871 9.179 170.685 9.25073 169.464 9.30436L169.463 9.3044L169.462 9.30445C169.338 9.30989 169.224 9.31489 169.122 9.3192C168.012 9.36606 166.682 9.46875 166.019 9.52975L166.017 9.52991C165.837 9.54652 165.819 9.54816 165.768 9.61013C165.718 9.67233 165.727 9.78887 165.727 9.78887ZM176.545 18.516C177.616 17.542 177.633 16.0182 177.633 15.045C177.528 13.5189 176.893 10.5838 173.293 10.5838C172.451 10.542 170.729 10.6825 170.681 11.8123C170.629 12.0118 170.606 13.4077 170.619 15.5503L170.64 18.9698L171.007 19.1565L171.027 19.1666C171.225 19.2682 171.483 19.3999 171.934 19.4854C173.366 19.7566 175.474 19.49 176.545 18.516ZM154.02 9.45036C154.287 9.35259 154.463 9.28729 154.463 9.28729C154.463 9.28729 154.861 9.12882 154.99 9.28729C155.03 9.33609 155.174 9.69684 155.532 10.5909C155.603 10.7665 155.681 10.9626 155.769 11.181C156.303 12.5115 157.069 14.4212 157.473 15.425C157.876 16.4285 158.674 18.4147 159.246 19.8385C159.818 21.2623 160.552 23.089 160.877 23.8976C161.203 24.7062 161.618 25.547 161.735 25.7004C161.792 25.7756 161.85 25.8693 161.914 25.972C162.165 26.3746 162.502 26.9151 163.179 27.0208C163.179 27.0208 163.709 27.1057 163.788 27.1859C163.866 27.2664 163.884 27.4123 163.884 27.4123V27.6866C163.884 27.6866 163.875 27.7568 163.831 27.8165C163.788 27.8761 163.627 27.8595 163.627 27.8595L159.542 27.8597L156.635 27.8799C156.635 27.8799 156.533 27.892 156.474 27.8441C156.414 27.7961 156.382 27.6751 156.382 27.6751V27.4685C156.382 27.4685 156.357 27.3131 156.474 27.1779C156.59 27.0428 157.057 27.0272 157.057 27.0272C157.936 26.9533 158.286 26.2279 158.465 25.8546C158.479 25.8267 158.491 25.8008 158.503 25.7772C158.695 25.3912 158.625 25.1399 157.76 23.0765C157.189 21.7146 156.994 21.3323 156.855 21.2983C156.757 21.2744 155.237 21.2656 153.476 21.2786L150.274 21.3023L150.082 21.8115C149.528 23.2847 149.037 24.7479 148.963 25.1435C148.812 25.9487 149.022 26.844 150.245 26.9996C150.245 26.9996 150.699 27.0601 150.82 27.1483C150.941 27.2367 150.984 27.463 150.984 27.463V27.6717C150.984 27.6717 150.961 27.771 150.877 27.8378C150.794 27.9047 150.578 27.8803 150.578 27.8803H147.522L144.565 27.9128C144.565 27.9128 144.439 27.9101 144.345 27.8621C144.252 27.8143 144.237 27.7182 144.237 27.7182V27.52C144.237 27.52 144.221 27.3914 144.386 27.2339C144.551 27.0766 144.995 27.0344 144.995 27.0344C145.803 26.9085 146.261 26.0762 146.524 25.597C146.544 25.5617 146.562 25.5283 146.58 25.4972C146.684 25.3105 147.155 24.2221 147.626 23.0785C148.097 21.9348 148.626 20.6552 148.801 20.235C149.397 18.8064 149.963 17.4378 150.82 15.3546C151.29 14.2108 151.986 12.5226 152.367 11.6029L153.059 9.93079L154.02 9.45036ZM153.768 13.5148C153.917 13.8766 154.144 14.4208 154.273 14.7242C154.402 15.0277 154.763 15.8871 155.076 16.6339C155.388 17.3808 155.772 18.29 155.929 18.6539C156.085 19.0181 156.214 19.333 156.214 19.3542C156.214 19.3753 155.037 19.3926 153.599 19.3926C151.948 19.3926 150.984 19.3619 150.984 19.3093C150.984 19.2636 151.039 19.0822 151.107 18.9062C151.214 18.6262 151.751 17.1403 152.936 13.8404C153.119 13.3307 153.288 12.8813 153.313 12.8416C153.396 12.7058 153.499 12.8572 153.768 13.5148Z" fill="black"/>
<g style="mix-blend-mode:darken">
<path d="M13.1867 1.99038C12.7706 1.92636 12.7531 1.91884 12.9489 1.88899C13.3241 1.83178 14.2101 1.90976 14.8206 2.05376C16.2459 2.38983 17.5428 3.25072 18.9273 4.77964L19.2952 5.18582L19.8212 5.10193C22.038 4.74859 24.2927 5.02941 26.1788 5.89362C26.6976 6.13139 27.5157 6.60467 27.618 6.72629C27.6505 6.76506 27.7103 7.01456 27.7508 7.2808C27.8909 8.2019 27.8207 8.90792 27.5368 9.43527C27.3821 9.72221 27.3736 9.81317 27.4775 10.0588C27.5604 10.2547 27.7917 10.3998 28.0207 10.3995C28.4895 10.3988 28.9938 9.6473 29.2276 8.60161L29.3205 8.18625L29.5045 8.39292C30.5134 9.52672 31.3058 11.073 31.4419 12.1736L31.4774 12.4605L31.3077 12.1997C31.0158 11.7508 30.7226 11.4452 30.3471 11.1987C29.6702 10.7545 28.9545 10.6032 27.0589 10.5042C25.3469 10.4147 24.3781 10.2696 23.4172 9.95888C21.7825 9.43024 20.9585 8.7262 19.0168 6.19927C18.1544 5.07688 17.6213 4.4559 17.0911 3.95581C15.8861 2.81949 14.7022 2.22354 13.1867 1.99038Z" fill="black"/>
<path d="M28.0059 4.49606C28.0491 3.74396 28.1519 3.24788 28.3586 2.79484C28.4403 2.61552 28.5171 2.46875 28.5289 2.46875C28.5407 2.46875 28.5051 2.60111 28.4498 2.76286C28.2995 3.20254 28.2748 3.80391 28.3784 4.50357C28.5099 5.39132 28.5846 5.51941 29.5306 6.47839C29.9741 6.92819 30.4903 7.49548 30.6774 7.73903L31.0176 8.18191L30.6774 7.86541C30.2615 7.47837 29.3046 6.72355 29.0933 6.61566C28.9515 6.54329 28.9304 6.54454 28.843 6.63085C28.7626 6.71035 28.7455 6.82983 28.7343 7.39468C28.717 8.27503 28.596 8.84008 28.3041 9.40509C28.1462 9.71068 28.1213 9.64546 28.2642 9.30054C28.3708 9.04299 28.3816 8.92978 28.3809 8.07756C28.3793 6.36522 28.1743 5.95356 26.9723 5.24836C26.6679 5.06972 26.1662 4.81208 25.8576 4.6758C25.5489 4.53951 25.3038 4.42083 25.3127 4.41195C25.3468 4.37834 26.5189 4.71769 26.9906 4.89769C27.6924 5.16546 27.8081 5.20015 27.8934 5.16787C27.9506 5.14621 27.9782 4.98118 28.0059 4.49606Z" fill="black"/>
<path d="M13.996 7.42548C13.1513 6.27205 12.6287 4.50357 12.7419 3.18158L12.7769 2.77246L12.9691 2.80726C13.3302 2.8726 13.9527 3.10242 14.2442 3.27804C15.0442 3.75993 15.3905 4.39437 15.7428 6.02355C15.846 6.50073 15.9814 7.04075 16.0437 7.22355C16.144 7.51782 16.523 8.20518 16.8312 8.65158C17.0531 8.9731 16.9057 9.12545 16.415 9.08151C15.6657 9.01441 14.6508 8.31959 13.996 7.42548Z" fill="black"/>
<path d="M26.9782 16.01C23.0309 14.4336 21.6406 13.0652 21.6406 10.7564C21.6406 10.4167 21.6524 10.1387 21.6669 10.1387C21.6813 10.1387 21.8339 10.2508 22.0063 10.3879C22.8067 11.0247 23.7029 11.2966 26.1844 11.6557C27.6444 11.867 28.4661 12.0377 29.2242 12.287C31.6333 13.0796 33.1239 14.6879 33.4795 16.8786C33.5827 17.515 33.5222 18.7089 33.3546 19.338C33.2225 19.8349 32.8191 20.7306 32.7121 20.7649C32.6823 20.7744 32.6532 20.6616 32.6456 20.5081C32.6051 19.6856 32.1859 18.8847 31.4822 18.2848C30.682 17.6029 29.6069 17.0597 26.9782 16.01Z" fill="black"/>
<path d="M24.2079 16.665C24.1585 16.3732 24.0726 16.0003 24.0173 15.8366L23.9166 15.5391L24.1035 15.7473C24.3626 16.0354 24.567 16.4043 24.7405 16.8955C24.8728 17.2704 24.8876 17.3819 24.8867 17.9913C24.8857 18.5892 24.8692 18.7148 24.747 19.0522C24.5543 19.5844 24.3151 19.9616 23.9139 20.3667C23.1929 21.0946 22.2659 21.4976 20.928 21.6647C20.6954 21.6937 20.0178 21.7426 19.422 21.7733C17.9204 21.8509 16.932 22.011 16.044 22.3203C15.9164 22.3647 15.8023 22.3918 15.7908 22.3802C15.7548 22.3447 16.3595 21.9872 16.8589 21.7487C17.5631 21.4122 18.2639 21.2286 19.8346 20.9692C20.6103 20.841 21.4117 20.6855 21.615 20.6236C23.5363 20.0393 24.5239 18.5314 24.2079 16.665Z" fill="black"/>
<path d="M26.0175 19.8526C25.493 18.7344 25.3725 17.6547 25.6598 16.6479C25.6906 16.5401 25.74 16.4521 25.7698 16.4521C25.7995 16.4521 25.9232 16.5185 26.0446 16.5995C26.2864 16.7609 26.7711 17.0327 28.0624 17.7312C29.6737 18.6024 30.5926 19.2772 31.2172 20.0482C31.7645 20.7235 32.103 21.4924 32.266 22.43C32.3584 22.9612 32.3042 24.2391 32.1668 24.7741C31.7335 26.4605 30.7267 27.785 29.2904 28.5581C29.0801 28.6713 28.8912 28.7642 28.8707 28.7646C28.8503 28.7652 28.9269 28.5717 29.0411 28.335C29.5242 27.3333 29.5793 26.3588 29.2141 25.2742C28.9904 24.6101 28.5343 23.7997 27.6136 22.4302C26.5431 20.8379 26.2807 20.4142 26.0175 19.8526Z" fill="black"/>
<path d="M11.1861 25.8868C12.6509 24.6599 14.4735 23.7885 16.1336 23.5209C16.8491 23.4055 18.041 23.4513 18.7035 23.6195C19.7656 23.8892 20.7156 24.493 21.2097 25.2124C21.6926 25.9154 21.8997 26.5282 22.1154 27.8914C22.2004 28.4291 22.2929 28.9692 22.321 29.0913C22.4829 29.7978 22.7982 30.3626 23.1887 30.6463C23.809 31.0965 24.8774 31.1246 25.9281 30.718C26.1065 30.6489 26.2614 30.6013 26.2723 30.6122C26.3105 30.6497 25.7812 31.0009 25.408 31.1859C24.9055 31.4349 24.5063 31.531 23.9755 31.531C23.013 31.531 22.214 31.0453 21.5472 30.0551C21.4159 29.8604 21.1211 29.2766 20.8918 28.7581C20.1879 27.1654 19.8403 26.6803 19.023 26.1493C18.3115 25.6873 17.3942 25.6046 16.7041 25.9401C15.7975 26.381 15.5446 27.5301 16.1939 28.2584C16.4519 28.5478 16.9331 28.7974 17.3267 28.8459C18.0629 28.9368 18.6955 28.3813 18.6955 27.6441C18.6955 27.1654 18.5099 26.8921 18.0429 26.6831C17.4052 26.3977 16.7197 26.7313 16.723 27.3257C16.7244 27.579 16.8357 27.7382 17.0918 27.8531C17.256 27.9269 17.2598 27.9327 17.1258 27.9051C16.5407 27.7846 16.4036 27.085 16.8741 26.6203C17.439 26.0628 18.6072 26.3089 19.0081 27.07C19.1767 27.3898 19.1963 28.0266 19.0494 28.411C18.7206 29.2717 17.7619 29.7242 16.7892 29.478C16.127 29.3104 15.8574 29.1287 15.0591 28.313C13.6718 26.8955 13.1332 26.6209 11.1332 26.3112L10.75 26.2519L11.1861 25.8868Z" fill="black"/>
<path fill-rule="evenodd" clip-rule="evenodd" d="M4.6823 0.516788C9.31514 6.09417 12.506 8.39532 12.8606 8.88147C13.1534 9.28291 13.0432 9.6438 12.5416 9.92665C12.2627 10.0839 11.6893 10.2432 11.4022 10.2432C11.0774 10.2432 10.9659 10.119 10.9659 10.119C10.7776 9.94184 10.6716 9.97283 9.70466 8.27037C8.36225 6.20424 7.23883 4.49029 7.20818 4.4616C7.13731 4.39524 7.13853 4.39748 9.56778 8.70885C9.96028 9.60744 9.64584 9.93729 9.64584 10.0653C9.64584 10.3256 9.57424 10.4625 9.25045 10.8207C8.71068 11.418 8.46937 12.0891 8.2952 13.4781C8.09992 15.0352 7.55085 16.135 6.02918 18.0173C5.13846 19.1191 4.9927 19.3211 4.76795 19.7653C4.48485 20.3246 4.40701 20.6377 4.37547 21.344C4.34212 22.0906 4.40705 22.5731 4.63705 23.287C4.83839 23.9121 5.04855 24.3247 5.58586 25.1501C6.04953 25.8624 6.31651 26.3918 6.31651 26.5989C6.31651 26.7637 6.34823 26.7639 7.06673 26.603C8.7862 26.2178 10.1824 25.5404 10.9676 24.7103C11.4536 24.1965 11.5677 23.9128 11.5714 23.2086C11.5739 22.7482 11.5575 22.6518 11.432 22.3869C11.2277 21.9556 10.8558 21.597 10.036 21.0411C8.9619 20.3128 8.50314 19.7264 8.37642 18.9202C8.27247 18.2585 8.39307 17.7918 8.98727 16.5564C9.60231 15.2777 9.75471 14.7329 9.85781 13.444C9.9244 12.6114 10.0166 12.283 10.2578 12.0194C10.5094 11.7446 10.7358 11.6515 11.3584 11.5671C12.3733 11.4296 13.0195 11.1691 13.5507 10.6836C14.0116 10.2624 14.2044 9.85651 14.234 9.24555L14.2565 8.78246L13.9989 8.48462C13.0663 7.40607 4.05775 -0.331055 4.00035 -0.331055C3.9881 -0.331055 4.29499 0.0505076 4.6823 0.516788ZM6.84002 22.1889C7.05087 21.8185 6.93884 21.3423 6.58613 21.1097C6.25289 20.8899 5.73521 20.9935 5.73521 21.2799C5.73521 21.3673 5.78392 21.4308 5.89374 21.487C6.07864 21.5812 6.09208 21.6874 5.94659 21.9044C5.79925 22.124 5.81115 22.3171 5.98015 22.4483C6.25253 22.66 6.63809 22.5435 6.84002 22.1889Z" fill="black"/>
<path fill-rule="evenodd" clip-rule="evenodd" d="M14.8925 11.8098C14.416 11.9549 13.9529 12.4558 13.8095 12.981C13.722 13.3015 13.7716 13.8634 13.9027 14.037C14.1143 14.3175 14.319 14.3912 14.8732 14.3874C15.9582 14.3798 16.9015 13.9182 17.0111 13.3413C17.101 12.8681 16.6868 12.2127 16.1161 11.9249C15.8217 11.7764 15.1955 11.7175 14.8925 11.8098ZM16.1609 12.7936C16.3282 12.5579 16.255 12.3029 15.9704 12.1305C15.4285 11.8023 14.609 12.0739 14.609 12.5817C14.609 12.8346 15.0363 13.1103 15.4281 13.1103C15.6888 13.1103 16.0456 12.9561 16.1609 12.7936Z" fill="black"/>
</g>
</g>
<defs>
<clipPath id="clip0_520_7971">
<rect width="180.364" height="32" fill="white"/>
</clipPath>
</defs>
</svg>
