<svg width="202" height="38" viewBox="0 0 202 38" fill="none" xmlns="http://www.w3.org/2000/svg">
<g opacity="0.4">
<g clip-path="url(#clip0_527_8324)">
<path d="M19.4293 15.821C21.7419 13.5634 24.4269 11.8147 27.4107 10.6194C30.2348 9.48913 33.2067 8.90624 36.2526 8.88258V4.48878C30.0071 4.57163 23.8592 6.67533 18.8704 10.4537L18.486 10.7436L18.0395 10.5602C17.5722 10.3679 15.8955 9.60748 13.9201 7.92985C11.6313 5.98297 9.77716 3.54198 8.39616 0.663086L5.51294 3.75205C8.13298 9.59859 13.2903 14.0723 19.4293 15.821Z" fill="url(#paint0_linear_527_8324)"/>
<path d="M18.7196 18.4484C12.0956 16.5813 6.613 12.0485 3.5139 5.89429L0.030365 9.63123C3.20931 15.2144 8.201 19.6526 14.1331 22.1646L14.139 22.1675L14.6032 22.3658L14.6328 22.5907L14.6713 22.9132C14.8014 24.0167 15.1977 29.5645 11.2202 35.6862H15.8217C17.4391 33.2067 18.554 30.3545 19.0568 27.4135C19.5653 24.434 19.4471 21.345 18.7196 18.4484Z" fill="black"/>
<path d="M21.3574 17.747C22.1765 20.9661 22.3332 24.2534 21.8276 27.5198C21.3781 30.4017 20.4319 33.1415 19.0094 35.6861H24.4861C25.4737 33.3842 26.1657 30.958 26.5443 28.4637C26.9523 25.7831 26.9908 23.0699 26.6566 20.4069L26.5975 19.9246L26.9819 19.6317C27.6118 19.1524 30.9032 16.8269 36.2586 16.2736V11.6194C30.6991 11.6904 25.3259 13.8947 21.3574 17.747Z" fill="black"/>
</g>
<path opacity="0.9" d="M53.4901 21.7271V28.2439H50.3506V21.7271L44.8565 11.5951H48.3052L51.3971 17.5173C51.4288 17.5649 51.4605 17.6362 51.4922 17.7314C51.5398 17.8265 51.5715 17.8899 51.5874 17.9216L51.9203 18.7303C51.952 18.6193 52.0075 18.4766 52.0868 18.3022C52.1661 18.1278 52.2216 18.0009 52.2533 17.9216C52.2692 17.8899 52.293 17.8265 52.3247 17.7314C52.3722 17.6362 52.4119 17.5649 52.4436 17.5173L55.5355 11.5951H58.9842L53.4901 21.7271ZM60.5435 28.2439V16.447H63.5403V28.2439H60.5435ZM60.4008 14.7346V11.5951H63.683V14.7346H60.4008ZM77.8107 23.059H68.7252C68.8203 23.9628 69.1613 24.6842 69.7479 25.2233C70.3346 25.7466 71.0719 26.0082 71.9598 26.0082C73.4186 26.0082 74.5047 25.2868 75.2182 23.8439L77.4539 25.1282C76.344 27.4273 74.4968 28.5769 71.9123 28.5769C70.2315 28.5769 68.7966 27.9981 67.6074 26.8406C66.434 25.6673 65.8473 24.1689 65.8473 22.3455C65.8473 20.522 66.4419 19.0316 67.6311 17.8741C68.8362 16.7007 70.3108 16.1141 72.055 16.1141C73.7357 16.1141 75.1152 16.669 76.1934 17.7789C77.2716 18.8889 77.8107 20.3 77.8107 22.0125V23.059ZM71.9598 18.3973C71.1829 18.3973 70.509 18.6272 69.9382 19.0871C69.3674 19.5469 68.9631 20.1415 68.7252 20.8709H75.0518C74.9091 20.0939 74.5681 19.4914 74.029 19.0633C73.4899 18.6193 72.8002 18.3973 71.9598 18.3973ZM80.1937 28.2439V11.5951H83.1905V28.2439H80.1937ZM98.0306 11.5951V28.2439H95.0338V26.579C94.685 27.1815 94.1935 27.6652 93.5592 28.0298C92.925 28.3945 92.1798 28.5769 91.3235 28.5769C89.6587 28.5769 88.2713 28.014 87.1613 26.8882C86.0673 25.7624 85.5202 24.2482 85.5202 22.3455C85.5202 20.4745 86.099 18.9681 87.2565 17.8265C88.4298 16.6849 89.7855 16.1141 91.3235 16.1141C93.0836 16.1141 94.3203 16.7087 95.0338 17.8979V11.5951H98.0306ZM89.516 24.819C90.1502 25.4532 90.943 25.7704 91.8944 25.7704C92.8457 25.7704 93.6385 25.4532 94.2728 24.819C94.907 24.1689 95.2241 23.3444 95.2241 22.3455C95.2241 21.3465 94.907 20.53 94.2728 19.8957C93.6385 19.2456 92.8457 18.9206 91.8944 18.9206C90.943 18.9206 90.1502 19.2456 89.516 19.8957C88.8817 20.53 88.5646 21.3465 88.5646 22.3455C88.5646 23.3444 88.8817 24.1689 89.516 24.819ZM107.839 28.2439V11.5951H115.402C117.321 11.5951 118.835 12.0708 119.945 13.0221C121.071 13.9576 121.634 15.2895 121.634 17.0179C121.634 18.7462 121.071 20.086 119.945 21.0373C118.835 21.9728 117.321 22.4406 115.402 22.4406H110.978V28.2439H107.839ZM110.978 14.4016V19.6341H115.307C116.369 19.6341 117.162 19.4042 117.685 18.9444C118.225 18.4845 118.494 17.8424 118.494 17.0179C118.494 16.1933 118.225 15.5512 117.685 15.0913C117.162 14.6315 116.369 14.4016 115.307 14.4016H110.978ZM130.929 16.2568L130.453 19.0871C130.168 18.9761 129.843 18.9206 129.478 18.9206C128.59 18.9206 127.893 19.2456 127.385 19.8957C126.878 20.5458 126.624 21.3862 126.624 22.4168V28.2439H123.627V16.447H126.624V18.326C127.354 16.8514 128.448 16.1141 129.906 16.1141C130.271 16.1141 130.612 16.1616 130.929 16.2568ZM142.52 17.7789C143.804 18.873 144.446 20.3952 144.446 22.3455C144.446 24.2958 143.804 25.8259 142.52 26.9358C141.251 28.0298 139.745 28.5769 138.001 28.5769C136.257 28.5769 134.742 28.0298 133.458 26.9358C132.19 25.8259 131.555 24.2958 131.555 22.3455C131.555 20.3952 132.19 18.873 133.458 17.7789C134.742 16.669 136.257 16.1141 138.001 16.1141C139.745 16.1141 141.251 16.669 142.52 17.7789ZM135.599 24.8428C136.265 25.4612 137.065 25.7704 138.001 25.7704C138.936 25.7704 139.737 25.4612 140.403 24.8428C141.069 24.2244 141.402 23.392 141.402 22.3455C141.402 21.299 141.069 20.4665 140.403 19.8481C139.737 19.2298 138.936 18.9206 138.001 18.9206C137.065 18.9206 136.265 19.2298 135.599 19.8481C134.933 20.4665 134.6 21.299 134.6 22.3455C134.6 23.392 134.933 24.2244 135.599 24.8428ZM145.439 18.873V16.447H147.27V13.26H150.267V16.447H152.835V18.873H150.267V24.2482C150.267 25.3581 150.766 25.9131 151.765 25.9131C152.082 25.9131 152.415 25.8655 152.764 25.7704L153.05 28.2439C152.415 28.4659 151.749 28.5769 151.052 28.5769C148.531 28.5769 147.27 27.3242 147.27 24.819V18.873H145.439ZM165.235 17.7789C166.52 18.873 167.162 20.3952 167.162 22.3455C167.162 24.2958 166.52 25.8259 165.235 26.9358C163.967 28.0298 162.46 28.5769 160.716 28.5769C158.972 28.5769 157.458 28.0298 156.174 26.9358C154.905 25.8259 154.271 24.2958 154.271 22.3455C154.271 20.3952 154.905 18.873 156.174 17.7789C157.458 16.669 158.972 16.1141 160.716 16.1141C162.46 16.1141 163.967 16.669 165.235 17.7789ZM158.314 24.8428C158.98 25.4612 159.781 25.7704 160.716 25.7704C161.652 25.7704 162.453 25.4612 163.119 24.8428C163.784 24.2244 164.117 23.392 164.117 22.3455C164.117 21.299 163.784 20.4665 163.119 19.8481C162.453 19.2298 161.652 18.9206 160.716 18.9206C159.781 18.9206 158.98 19.2298 158.314 19.8481C157.648 20.4665 157.315 21.299 157.315 22.3455C157.315 23.392 157.648 24.2244 158.314 24.8428ZM178.133 23.606L180.559 25.1758C179.434 27.4432 177.594 28.5769 175.042 28.5769C173.266 28.5769 171.783 28.0061 170.594 26.8644C169.421 25.7069 168.834 24.2006 168.834 22.3455C168.834 20.5062 169.436 19.0078 170.641 17.8503C171.847 16.6928 173.313 16.1141 175.042 16.1141C176.358 16.1141 177.483 16.3995 178.419 16.9703C179.354 17.5252 180.028 18.3101 180.44 19.3249L177.991 20.9422C177.372 19.5945 176.381 18.9206 175.018 18.9206C174.114 18.9206 173.361 19.2377 172.758 19.8719C172.172 20.4903 171.878 21.3148 171.878 22.3455C171.878 23.392 172.172 24.2244 172.758 24.8428C173.345 25.4612 174.098 25.7704 175.018 25.7704C175.779 25.7704 176.397 25.5959 176.873 25.2471C177.364 24.8824 177.785 24.3354 178.133 23.606ZM192.875 17.7789C194.159 18.873 194.801 20.3952 194.801 22.3455C194.801 24.2958 194.159 25.8259 192.875 26.9358C191.606 28.0298 190.1 28.5769 188.356 28.5769C186.612 28.5769 185.098 28.0298 183.813 26.9358C182.545 25.8259 181.91 24.2958 181.91 22.3455C181.91 20.3952 182.545 18.873 183.813 17.7789C185.098 16.669 186.612 16.1141 188.356 16.1141C190.1 16.1141 191.606 16.669 192.875 17.7789ZM185.954 24.8428C186.62 25.4612 187.42 25.7704 188.356 25.7704C189.291 25.7704 190.092 25.4612 190.758 24.8428C191.424 24.2244 191.757 23.392 191.757 22.3455C191.757 21.299 191.424 20.4665 190.758 19.8481C190.092 19.2298 189.291 18.9206 188.356 18.9206C187.42 18.9206 186.62 19.2298 185.954 19.8481C185.288 20.4665 184.955 21.299 184.955 22.3455C184.955 23.392 185.288 24.2244 185.954 24.8428ZM197.139 28.2439V11.5951H200.136V28.2439H197.139Z" fill="black"/>
</g>
<defs>
<linearGradient id="paint0_linear_527_8324" x1="5.51294" y1="0.663086" x2="5.51294" y2="3820.45" gradientUnits="userSpaceOnUse">
<stop/>
</linearGradient>
<clipPath id="clip0_527_8324">
<rect width="37.875" height="37.4294" fill="white" transform="translate(0 0.544189)"/>
</clipPath>
</defs>
</svg>
