<svg width="489" height="320" viewBox="0 0 489 320" fill="none" xmlns="http://www.w3.org/2000/svg">
<rect x="0.5" y="0.5" width="488" height="319" rx="7.5" fill="#FCFCFC"/>
<path d="M349.5 67.5L307.5 47L261.5 72V121L307.5 143.5L349.5 121V67.5Z" fill="white"/>
<path d="M120 116.085L211.5 72.085L254.5 94.585V145.585L302 165.585V221.085L217.5 272.085L122 224.085L120 116.085Z" fill="white"/>
<path d="M280.564 121.027L325.878 97.6973M325.878 97.6973L368.5 121.027M325.878 97.6973L326.327 47" stroke="#353539" stroke-linejoin="bevel" stroke-dasharray="5 5"/>
<path d="M325.879 143.908L368.501 121.027V67.1892M325.879 143.908L280.117 121.027V72.1243M325.879 143.908V92.3135M368.501 67.1892L325.879 47L280.117 72.1243M368.501 67.1892L325.879 92.3135M280.117 72.1243L325.879 92.3135" stroke="#9D63D3" stroke-width="2"/>
<path d="M120.846 170.379L165.262 150.189M165.262 150.189L211.921 169.481M165.262 150.189V94.1084M165.262 150.189V201.784M211.921 169.481L171.094 192.362M211.921 169.481V116.989M211.921 169.481L258.581 189.671M211.921 169.481L254.543 145.703M211.921 169.481V223.768M254.543 145.703L255.44 94.6219M254.543 145.703L302.1 165.444M211.921 223.768L171.094 249.341M211.921 223.768L258.581 247.098M211.921 223.768L165.262 201.784M211.921 223.768L254.992 197.298L302.1 220.627M165.262 201.784L122.64 224.217" stroke="#9D63D3" stroke-linejoin="bevel" stroke-dasharray="5 5"/>
<path d="M211.473 116.092L170.197 136.281M211.473 116.092L254.992 94.1081M211.473 116.092L165.262 94.1081M211.473 116.092L254.992 134.948M259.03 136.281L217.754 157.368M259.03 136.281V147.497M259.03 136.281L254.992 134.948M259.03 190.119L217.754 215.692M259.03 190.119V247.546M259.03 190.119L302.1 165.443M259.03 190.119V147.497M217.754 215.692L170.197 194.157M217.754 215.692V272.67M217.754 215.692V157.368M170.197 194.157V136.281M170.197 194.157L170.646 249.341M170.197 194.157L120.622 170.154M170.197 136.281L217.754 157.368M170.197 136.281L120.5 115.092M217.754 272.67L259.03 247.546M217.754 272.67L170.646 249.341M259.03 247.546L302.1 221.076V165.443M170.646 249.341L120.743 224.216L120.622 170.154M254.992 94.1081L211.473 71.6757L165.262 94.1081M254.992 94.1081V134.948M302.1 165.443L259.03 147.497M165.262 94.1081L120.5 115.092M120.5 115.092L120.622 170.154" stroke="#353539" stroke-width="2" stroke-linejoin="bevel"/>
<rect x="0.5" y="0.5" width="488" height="319" rx="7.5" stroke="#E2E2E2"/>
</svg>
